<svg xmlns="http://www.w3.org/2000/svg" width="4786" height="4257" viewBox="0 0 4786 4257" version="1.1"><path d="M 2266.250 189.706 C 2261.854 190.552, 2264.103 191.807, 2271.250 192.495 C 2275.238 192.878, 2281.804 193.810, 2285.842 194.565 C 2289.880 195.321, 2293.480 195.899, 2293.842 195.851 C 2294.204 195.803, 2295.287 195.816, 2296.250 195.882 C 2299.239 196.084, 2298.171 197.848, 2294.750 198.359 C 2292.963 198.625, 2296.900 198.625, 2303.500 198.357 C 2310.100 198.089, 2317.300 197.524, 2319.500 197.101 L 2323.500 196.332 2319 195.664 C 2316.525 195.297, 2305.275 194.317, 2294 193.487 C 2278.328 192.333, 2273.239 191.627, 2272.390 190.489 C 2271.279 188.999, 2270.460 188.895, 2266.250 189.706 M 2554.482 189.971 C 2554.812 190.505, 2554.051 191.166, 2552.791 191.440 C 2548.303 192.416, 2532.306 193.896, 2520 194.474 C 2485.839 196.078, 2491.059 197.993, 2535.060 200 C 2546.368 200.516, 2558.293 201.239, 2561.560 201.608 C 2564.827 201.976, 2567.196 201.948, 2566.823 201.546 C 2566.451 201.143, 2557.039 200.068, 2545.906 199.157 C 2534.774 198.246, 2525.515 197.050, 2525.331 196.500 C 2525.125 195.884, 2527.205 195.637, 2530.747 195.857 C 2533.909 196.053, 2539.872 195.482, 2543.998 194.587 C 2548.124 193.693, 2553.714 192.628, 2556.420 192.221 C 2562.702 191.276, 2563.836 189, 2558.024 189 C 2555.601 189, 2554.131 189.403, 2554.482 189.971 M 1505.666 1014.337 C 1504.365 1015.636, 1504.014 1016.953, 1504.465 1018.837 C 1505.697 1023.979, 1529.788 1089.050, 1537.642 1108.449 C 1543.986 1124.119, 1559.879 1165.740, 1566.404 1183.774 C 1569.443 1192.175, 1573.729 1203.650, 1575.928 1209.274 C 1578.127 1214.898, 1584.495 1231.650, 1590.079 1246.500 C 1595.662 1261.350, 1601.564 1276.875, 1603.195 1281 C 1604.825 1285.125, 1607.971 1293.450, 1610.185 1299.500 C 1615.517 1314.063, 1630.217 1353.052, 1638.840 1375.500 C 1642.643 1385.400, 1648.099 1400.025, 1650.965 1408 C 1653.830 1415.975, 1660.153 1432.625, 1665.015 1445 C 1669.878 1457.375, 1675.278 1471.325, 1677.017 1476 C 1678.755 1480.675, 1681.920 1489, 1684.050 1494.500 C 1695.817 1524.886, 1699.540 1534.679, 1703.629 1546 C 1711.744 1568.471, 1718.051 1585.150, 1726.595 1606.734 C 1731.218 1618.413, 1735 1628.245, 1735 1628.583 C 1735 1628.921, 1735.634 1630.616, 1736.408 1632.349 C 1737.182 1634.082, 1741.731 1646.075, 1746.516 1659 C 1751.301 1671.925, 1757.383 1688.125, 1760.033 1695 C 1762.682 1701.875, 1767.169 1713.800, 1770.003 1721.500 C 1772.837 1729.200, 1777.331 1741.125, 1779.989 1748 C 1791.387 1777.475, 1795.275 1787.630, 1802.575 1807 C 1806.824 1818.275, 1811.099 1829.750, 1812.075 1832.500 C 1813.050 1835.250, 1815.943 1842.900, 1818.502 1849.500 C 1826.758 1870.786, 1836.041 1895.160, 1841.164 1909 C 1843.913 1916.425, 1849.004 1929.925, 1852.477 1939 C 1855.950 1948.075, 1860.137 1959.100, 1861.781 1963.500 C 1867.427 1978.610, 1876.095 2001.503, 1877.494 2005 C 1884.422 2022.313, 1890.798 2039.090, 1895.546 2052.500 C 1906.512 2083.466, 1908.743 2089.597, 1912.896 2100.166 C 1915.200 2106.032, 1918.098 2112.332, 1919.334 2114.166 L 1921.582 2117.500 2045.247 2117.494 C 2131.176 2117.490, 2169.236 2117.164, 2169.974 2116.426 C 2170.558 2115.842, 2173.016 2109.769, 2175.435 2102.932 C 2177.854 2096.094, 2181.837 2085.325, 2184.286 2079 C 2186.736 2072.675, 2190.857 2061.875, 2193.446 2055 C 2196.034 2048.125, 2200.799 2035.750, 2204.034 2027.500 C 2209.680 2013.104, 2212.284 2006.221, 2219.551 1986.500 C 2221.375 1981.550, 2225.188 1971.650, 2228.024 1964.500 C 2230.861 1957.350, 2234.460 1947.900, 2236.022 1943.500 C 2237.585 1939.100, 2240.048 1932.575, 2241.496 1929 C 2242.944 1925.425, 2248.173 1911.700, 2253.116 1898.500 C 2262.264 1874.071, 2268.217 1858.488, 2277.057 1835.833 C 2279.776 1828.866, 2283.779 1818.291, 2285.954 1812.333 C 2288.128 1806.375, 2292.649 1794.300, 2296 1785.500 C 2299.351 1776.700, 2303.827 1764.775, 2305.948 1759 C 2308.068 1753.225, 2312.345 1741.975, 2315.452 1734 C 2324.251 1711.418, 2329.376 1697.952, 2336.383 1679 C 2339.942 1669.375, 2345.176 1655.650, 2348.015 1648.500 C 2350.854 1641.350, 2354.448 1631.900, 2356.002 1627.500 C 2357.557 1623.100, 2361.354 1612.975, 2364.440 1605 C 2367.526 1597.025, 2372.120 1585.100, 2374.648 1578.500 C 2377.176 1571.900, 2379.811 1565.150, 2380.504 1563.500 C 2381.197 1561.850, 2382.316 1558.700, 2382.992 1556.500 C 2383.667 1554.300, 2387.053 1545.300, 2390.517 1536.500 C 2393.981 1527.700, 2398.696 1515.325, 2400.994 1509 C 2408.462 1488.450, 2409.166 1486.573, 2411.500 1481 C 2412.767 1477.975, 2415.644 1470.451, 2417.892 1464.281 C 2420.141 1458.110, 2423.603 1448.885, 2425.586 1443.781 C 2427.569 1438.676, 2430.015 1432.250, 2431.022 1429.500 C 2432.029 1426.750, 2434.879 1419.325, 2437.356 1413 C 2441.898 1401.399, 2444.013 1395.787, 2452.425 1373 C 2454.963 1366.125, 2457.461 1359.600, 2457.975 1358.500 C 2458.490 1357.400, 2463.691 1343.675, 2469.533 1328 C 2475.375 1312.325, 2481.452 1296.350, 2483.037 1292.500 C 2486.890 1283.140, 2496.718 1256.861, 2498.932 1250 C 2499.908 1246.975, 2504.576 1234.825, 2509.305 1223 C 2514.035 1211.175, 2521.251 1192.500, 2525.340 1181.500 C 2541.140 1139.003, 2551.812 1110.948, 2559.195 1092.500 C 2561.396 1087, 2565.209 1076.875, 2567.669 1070 C 2570.129 1063.125, 2574.758 1050.731, 2577.957 1042.457 C 2585.074 1024.047, 2586.880 1016.451, 2584.665 1014.236 C 2583.315 1012.886, 2569.524 1012.698, 2465.319 1012.605 C 2365.797 1012.516, 2346.979 1012.720, 2344.144 1013.915 C 2340.210 1015.574, 2340.221 1015.551, 2329.427 1044.630 C 2318.386 1074.376, 2317.120 1077.849, 2315.067 1084 C 2311.914 1093.450, 2306.321 1108.244, 2303.536 1114.500 C 2300.656 1120.968, 2298.686 1126.187, 2293.531 1141 C 2291.712 1146.225, 2289.235 1152.750, 2288.025 1155.500 C 2284.949 1162.494, 2280.399 1174.692, 2270.681 1202 C 2262.356 1225.393, 2259.347 1233.493, 2256.748 1239.500 C 2255.321 1242.800, 2251.885 1251.800, 2249.113 1259.500 C 2246.341 1267.200, 2241.319 1280.700, 2237.954 1289.500 C 2234.589 1298.300, 2231.005 1307.750, 2229.991 1310.500 C 2228.976 1313.250, 2227.193 1317.975, 2226.028 1321 C 2224.863 1324.025, 2221.901 1332.125, 2219.445 1339 C 2216.990 1345.875, 2213.190 1356, 2211.001 1361.500 C 2208.812 1367, 2204.274 1378.925, 2200.917 1388 C 2197.560 1397.075, 2192.776 1409.900, 2190.285 1416.500 C 2187.795 1423.100, 2184.716 1431.425, 2183.444 1435 C 2178.537 1448.786, 2174.119 1460.721, 2171.970 1466 C 2170.738 1469.025, 2168.709 1474.200, 2167.460 1477.500 C 2166.211 1480.800, 2163.314 1488.225, 2161.023 1494 C 2158.732 1499.775, 2155.546 1508.325, 2153.944 1513 C 2152.341 1517.675, 2148.071 1529.375, 2144.456 1539 C 2140.840 1548.625, 2137.263 1558.525, 2136.505 1561 C 2135.748 1563.475, 2133.923 1568.650, 2132.449 1572.500 C 2126.158 1588.934, 2092.661 1686.036, 2089.156 1698 C 2088.593 1699.925, 2087.239 1703.975, 2086.148 1707 C 2085.058 1710.025, 2081.841 1719.925, 2079 1729 C 2076.160 1738.075, 2072.788 1747.975, 2071.508 1751 C 2069.339 1756.128, 2057.297 1792.278, 2053.427 1805.282 C 2052.481 1808.462, 2051.279 1811.327, 2050.757 1811.650 C 2049.073 1812.691, 2047.283 1809.671, 2045.035 1802 C 2043.826 1797.875, 2041.770 1791.125, 2040.466 1787 C 2039.162 1782.875, 2037.375 1776.575, 2036.496 1773 C 2035.616 1769.425, 2034.045 1764.250, 2033.005 1761.500 C 2030.406 1754.626, 2024.452 1736.259, 2021.497 1726 C 2020.150 1721.325, 2016.798 1710.975, 2014.049 1703 C 2011.299 1695.025, 2007.717 1684.225, 2006.089 1679 C 2004.461 1673.775, 2001.040 1663.875, 1998.486 1657 C 1995.933 1650.125, 1992.553 1640.363, 1990.976 1635.306 C 1989.399 1630.249, 1987.467 1624.849, 1986.682 1623.306 C 1985.896 1621.763, 1984.067 1616.675, 1982.616 1612 C 1981.164 1607.325, 1978.887 1600.800, 1977.555 1597.500 C 1976.223 1594.200, 1974.244 1588.800, 1973.158 1585.500 C 1969.969 1575.809, 1959.848 1547.898, 1951.038 1524.500 C 1938.289 1490.640, 1932.223 1474.240, 1928.084 1462.442 C 1926.529 1458.010, 1924.739 1453.510, 1924.107 1452.442 C 1922.983 1450.545, 1918.979 1439.523, 1912.888 1421.562 C 1911.221 1416.646, 1909.251 1411.453, 1908.511 1410.022 C 1907.771 1408.590, 1905.811 1403.612, 1904.156 1398.959 C 1900.182 1387.786, 1894.208 1371.403, 1888.490 1356 C 1885.938 1349.125, 1882.592 1339.874, 1881.054 1335.442 C 1879.515 1331.010, 1877.732 1326.510, 1877.092 1325.442 C 1876.452 1324.374, 1874.643 1319.675, 1873.073 1315 C 1869.215 1303.513, 1863.229 1287.175, 1861.532 1283.500 C 1859.786 1279.719, 1853.574 1262.805, 1850.397 1253.182 C 1849.068 1249.157, 1847.289 1244.526, 1846.444 1242.891 C 1845.598 1241.256, 1843.335 1235.549, 1841.416 1230.209 C 1839.496 1224.869, 1836.323 1216.225, 1834.364 1211 C 1832.405 1205.775, 1828.868 1196.100, 1826.504 1189.500 C 1821.765 1176.273, 1817.317 1164.202, 1811.028 1147.500 C 1808.749 1141.450, 1805.516 1132.675, 1803.843 1128 C 1802.169 1123.325, 1800.186 1118.150, 1799.435 1116.500 C 1798.684 1114.850, 1796.757 1109.900, 1795.151 1105.500 C 1791.815 1096.356, 1784.304 1076.274, 1779.816 1064.500 C 1778.138 1060.100, 1774.861 1051.100, 1772.532 1044.500 C 1762.752 1016.782, 1761.711 1014.537, 1757.906 1012.961 C 1755.784 1012.082, 1724.271 1011.879, 1631.293 1012.145 C 1512.771 1012.485, 1507.427 1012.578, 1505.666 1014.337 M 3151.500 1281.564 C 3149.850 1281.783, 3144 1282.475, 3138.500 1283.103 C 3114.366 1285.859, 3084.557 1293.424, 3062 1302.516 C 3045.843 1309.029, 3015.992 1325.889, 3004.775 1334.839 C 3001.561 1337.402, 2997.035 1341.003, 2994.716 1342.840 C 2983.661 1351.599, 2950.321 1383.842, 2944.918 1391 C 2938.903 1398.967, 2937.464 1400.273, 2936.312 1398.807 C 2935.058 1397.212, 2933.396 1384.924, 2931.471 1363 C 2930.674 1353.925, 2929.606 1343.350, 2929.098 1339.500 C 2928.590 1335.650, 2927.881 1326.650, 2927.523 1319.500 C 2926.776 1304.608, 2925.845 1301.283, 2922.123 1300.237 C 2918.632 1299.256, 2701.275 1299.283, 2697.765 1300.265 C 2695.934 1300.778, 2694.804 1301.934, 2694.344 1303.765 C 2693.966 1305.269, 2694.213 1317.750, 2694.893 1331.500 C 2698.765 1409.875, 2699.305 1479.050, 2699.911 1975.096 C 2700.408 2382.032, 2700.715 2457.952, 2701.872 2459.346 C 2703.135 2460.868, 2712.759 2461, 2822.015 2461 C 2929.396 2461, 2940.844 2460.848, 2941.393 2459.418 C 2941.727 2458.548, 2942 2360.935, 2942 2242.500 C 2942 2124.065, 2942.273 2026.452, 2942.607 2025.582 C 2943.655 2022.850, 2945.500 2023.836, 2948.537 2028.750 C 2952.284 2034.814, 2975.418 2058.608, 2988.790 2070.153 C 3019.765 2096.894, 3050.752 2113.758, 3089.464 2124.944 C 3107.619 2130.189, 3114.840 2131.386, 3154 2135.633 C 3178.802 2138.323, 3227.381 2136.107, 3253.500 2131.094 C 3288.736 2124.331, 3326.496 2109.710, 3351.498 2093.148 C 3360.160 2087.410, 3385.818 2068.434, 3391.312 2063.701 C 3397.966 2057.970, 3420.350 2032.755, 3430.048 2020.067 C 3455.750 1986.440, 3478.665 1939.490, 3492.333 1892.455 C 3498.065 1872.731, 3499.711 1866.077, 3501.969 1853.500 C 3503.154 1846.900, 3504.995 1837.225, 3506.061 1832 C 3508.077 1822.118, 3510.679 1799.991, 3513.645 1767.500 C 3516.058 1741.067, 3516.086 1685.957, 3513.699 1658.500 C 3511.213 1629.907, 3508.095 1603.395, 3506.460 1596.957 C 3505.686 1593.908, 3504.322 1586.497, 3503.429 1580.488 C 3502.536 1574.478, 3500.918 1566.173, 3499.833 1562.031 C 3498.748 1557.889, 3496.570 1549.301, 3494.993 1542.946 C 3493.416 1536.591, 3491.259 1529.166, 3490.200 1526.446 C 3489.141 1523.726, 3487.697 1519.025, 3486.991 1516 C 3483.788 1502.287, 3460.876 1450.562, 3449.834 1432.119 C 3441.203 1417.703, 3426.504 1395.984, 3419.308 1387.014 C 3410.407 1375.918, 3387.376 1352.251, 3378.500 1345.077 C 3362.151 1331.863, 3338.747 1317.028, 3322 1309.262 C 3295.510 1296.977, 3262.131 1287.957, 3226.400 1283.425 C 3215.221 1282.008, 3158.741 1280.604, 3151.500 1281.564 M 3091.500 1460.047 C 3082.591 1461.436, 3070.293 1464.603, 3062.675 1467.470 C 3035.205 1477.810, 3006.382 1500.033, 2978.333 1532.500 C 2961.053 1552.502, 2944.682 1576.498, 2943.006 1584.280 C 2942.201 1588.024, 2941.970 1623.002, 2942.191 1708 L 2942.500 1826.500 2945.872 1833 C 2949.001 1839.029, 2952.720 1845.076, 2961.863 1859 C 2971.695 1873.971, 2985.234 1890.077, 3003.500 1908.533 C 3017.803 1922.984, 3030.444 1932.018, 3050.841 1942.367 C 3065.543 1949.827, 3071.410 1951.774, 3090.431 1955.508 C 3103.287 1958.032, 3105.679 1958.203, 3121.431 1957.722 C 3135.698 1957.286, 3140.059 1956.770, 3148 1954.578 C 3159.104 1951.512, 3175.964 1943.618, 3184.500 1937.489 C 3203.245 1924.028, 3220.719 1900.490, 3233.860 1871 C 3235.698 1866.875, 3238.036 1861.635, 3239.057 1859.355 C 3248.106 1839.134, 3258.949 1793.319, 3262.968 1758.328 C 3264.705 1743.209, 3266.128 1704.432, 3265.475 1690 C 3264.558 1669.708, 3262.075 1641.392, 3260.521 1633.500 C 3259.763 1629.650, 3258.852 1624.475, 3258.498 1622 C 3257.628 1615.926, 3250.568 1588.738, 3246.812 1577 C 3238.266 1550.290, 3220.420 1516.957, 3206.021 1500.809 C 3191.055 1484.027, 3162.007 1467.014, 3139.500 1461.850 C 3129.213 1459.490, 3101.705 1458.456, 3091.500 1460.047 M 836.981 1664.083 C 836.959 1664.556, 834.254 1682.496, 833.323 1688.349 L 832.710 1692.198 831.370 1688.349 C 830.633 1686.232, 830.023 1682.962, 830.015 1681.082 C 829.988 1674.925, 827.843 1664.886, 826.639 1665.282 C 824.765 1665.899, 824.731 1669.878, 826.563 1674.323 C 829.215 1680.759, 830.613 1748.746, 829.395 1812 C 828.375 1864.973, 826.901 1879.165, 825.967 1845 L 825.435 1825.500 825.217 1851.750 C 825.045 1872.559, 825.266 1878, 826.283 1878 C 827.168 1878, 827.959 1874.691, 828.832 1867.343 C 829.528 1861.481, 830.582 1855.781, 831.174 1854.675 C 832.226 1852.710, 832.279 1852.719, 833.551 1855.082 C 834.266 1856.412, 835.144 1860.004, 835.502 1863.065 C 835.860 1866.126, 836.575 1869.276, 837.091 1870.065 C 837.722 1871.030, 837.863 1870.191, 837.522 1867.500 C 834.535 1843.898, 833.797 1721.859, 836.421 1685.551 C 837.254 1674.029, 837.725 1664.392, 837.468 1664.134 C 837.210 1663.877, 836.991 1663.854, 836.981 1664.083 M 3987.458 1766.500 C 3987.459 1790.150, 3987.590 1799.682, 3987.749 1787.682 C 3987.909 1775.683, 3987.909 1756.333, 3987.749 1744.682 C 3987.589 1733.032, 3987.458 1742.850, 3987.458 1766.500 M 1557.238 2278.218 C 1555.574 2278.649, 1553.842 2279.789, 1553.388 2280.751 C 1552.150 2283.374, 1551.695 2414.232, 1552.865 2431.042 C 1553.668 2442.578, 1554.199 2445.673, 1555.547 2446.658 C 1556.871 2447.626, 1663.631 2447.905, 2058.065 2447.970 L 2558.901 2448.053 2560.068 2445.873 C 2560.934 2444.255, 2561.191 2422.814, 2561.064 2362.790 C 2560.971 2318.293, 2560.665 2281.290, 2560.385 2280.561 C 2560.105 2279.832, 2557.992 2278.870, 2555.688 2278.423 C 2550.304 2277.379, 1561.261 2277.176, 1557.238 2278.218 M 3877.347 2357.795 C 3874.513 2364.783, 3870.094 2375.450, 3867.527 2381.500 C 3864.960 2387.550, 3862.638 2393.175, 3862.366 2394 C 3861.334 2397.136, 3865.436 2389.253, 3867.570 2384 C 3868.799 2380.975, 3872.781 2371.323, 3876.419 2362.552 C 3880.058 2353.780, 3882.914 2346.263, 3882.767 2345.847 C 3882.620 2345.431, 3880.181 2350.808, 3877.347 2357.795 M 3796.327 2529.250 C 3792.573 2535.988, 3789.050 2542.266, 3788.500 2543.203 C 3781.892 2554.450, 3775.637 2565.293, 3771.020 2573.500 C 3767.927 2579, 3764.580 2584.738, 3763.583 2586.250 C 3762.586 2587.762, 3761.994 2589, 3762.268 2589 C 3763.069 2589, 3770.214 2577.408, 3777.061 2565 C 3780.551 2558.675, 3784.890 2551.159, 3786.703 2548.298 C 3788.516 2545.437, 3790 2542.907, 3790 2542.676 C 3790 2542.181, 3800.833 2522.961, 3801.935 2521.500 C 3802.907 2520.212, 3804.056 2517, 3803.545 2517 C 3803.330 2517, 3800.082 2522.512, 3796.327 2529.250 M 3732.070 2635.750 C 3722.114 2650.976, 3698.101 2685.633, 3686.061 2702.153 C 3683.969 2705.024, 3683.922 2705.239, 3685.730 2703.668 C 3686.890 2702.661, 3690.878 2697.486, 3694.594 2692.168 C 3698.309 2686.851, 3704.501 2678, 3708.353 2672.500 C 3718.761 2657.639, 3735.564 2632.600, 3738.562 2627.485 C 3743.498 2619.062, 3740.417 2622.984, 3732.070 2635.750 M 3676.051 2715.750 C 3667.969 2726.790, 3667.741 2727.089, 3651.904 2747.532 C 3645.526 2755.764, 3635.029 2768.558, 3628.579 2775.962 C 3622.128 2783.366, 3614.746 2792.065, 3612.175 2795.295 C 3599.773 2810.871, 3595.624 2815.699, 3581.115 2831.442 C 3536.244 2880.128, 3470.897 2943.618, 3441.091 2967.487 C 3431.400 2975.248, 3415.952 2988.165, 3411 2992.648 C 3407.738 2995.602, 3396.587 3004.487, 3377.500 3019.341 C 3373.100 3022.766, 3365.450 3028.438, 3360.500 3031.947 C 3348.627 3040.362, 3341.125 3046.303, 3341.056 3047.343 C 3341.025 3047.807, 3343.137 3046.414, 3345.750 3044.248 C 3348.363 3042.082, 3352.750 3038.771, 3355.500 3036.890 C 3362.743 3031.936, 3383.904 3015.907, 3395.500 3006.593 C 3407.213 2997.183, 3430.277 2977.945, 3431 2976.981 C 3431.275 2976.615, 3433.662 2974.676, 3436.305 2972.674 C 3438.947 2970.672, 3441.744 2968.463, 3442.520 2967.767 C 3443.296 2967.070, 3444.509 2966.043, 3445.215 2965.485 C 3449.111 2962.405, 3474.162 2940.099, 3484.425 2930.571 C 3500.699 2915.463, 3560.724 2855.560, 3570.537 2844.635 C 3579.404 2834.763, 3585.387 2828.236, 3590.367 2823 C 3596.509 2816.542, 3606.566 2804.543, 3609.815 2799.794 C 3611.586 2797.206, 3613.815 2794.506, 3614.768 2793.794 C 3615.721 2793.083, 3617.821 2790.700, 3619.434 2788.500 C 3621.048 2786.300, 3623.800 2782.925, 3625.549 2781 C 3636.272 2769.205, 3644.653 2759.012, 3655.523 2744.547 C 3658.811 2740.173, 3663.439 2734.098, 3665.810 2731.047 C 3676.650 2717.094, 3684.537 2706, 3683.618 2706 C 3683.382 2706, 3679.977 2710.387, 3676.051 2715.750 M 3303 3073.269 C 3298.875 3076.033, 3290.550 3081.435, 3284.500 3085.272 C 3278.450 3089.109, 3272.825 3092.949, 3272 3093.806 C 3270.761 3095.093, 3270.935 3095.078, 3273 3093.720 C 3274.375 3092.815, 3277.750 3090.716, 3280.500 3089.056 C 3286.404 3085.491, 3296.416 3079.060, 3304.622 3073.562 C 3311.911 3068.679, 3311.411 3069.071, 3310.917 3068.621 C 3310.688 3068.412, 3307.125 3070.504, 3303 3073.269" stroke="none" fill="#f8fafb" fill-rule="evenodd"/><path d="M 2282.750 188.756 C 2273.100 189.036, 2270.259 189.806, 2272.886 191.430 C 2273.374 191.731, 2282.936 192.657, 2294.136 193.487 C 2315.433 195.065, 2323.426 195.907, 2322.826 196.508 C 2322.115 197.219, 2298.221 199.273, 2274 200.706 C 2255 201.830, 2226.456 204.466, 2212 206.431 C 2206.225 207.216, 2199.025 208.138, 2196 208.479 C 2188.080 209.371, 2162.035 213.914, 2158.500 215.019 C 2156.850 215.535, 2153.025 216.231, 2150 216.566 C 2146.975 216.900, 2141.350 217.830, 2137.500 218.631 C 2133.650 219.432, 2126.450 220.761, 2121.500 221.582 C 2116.550 222.404, 2108 224.013, 2102.500 225.158 C 2097 226.302, 2091.825 227.220, 2091 227.198 C 2090.175 227.175, 2088.600 227.523, 2087.500 227.970 C 2086.400 228.417, 2081.450 229.541, 2076.500 230.467 C 2066.713 232.299, 2066.221 232.411, 2064 233.296 C 2063.175 233.625, 2058.900 234.592, 2054.500 235.445 C 2050.100 236.298, 2043.125 237.889, 2039 238.981 C 2034.875 240.073, 2030.577 240.973, 2029.450 240.983 C 2028.322 240.992, 2026.944 241.456, 2026.388 242.012 C 2025.831 242.569, 2021.803 243.695, 2017.438 244.514 C 2013.072 245.333, 2008.600 246.439, 2007.500 246.972 C 2005.669 247.858, 2001.634 248.977, 1983 253.763 C 1979.425 254.681, 1976.275 255.718, 1976 256.067 C 1975.523 256.673, 1973.308 257.308, 1967.250 258.575 C 1965.737 258.892, 1963.600 259.549, 1962.500 260.037 C 1961.400 260.524, 1957.800 261.651, 1954.500 262.540 C 1951.200 263.429, 1947.150 264.750, 1945.500 265.475 C 1943.850 266.200, 1940.590 267.104, 1938.255 267.484 C 1935.921 267.863, 1933.769 268.565, 1933.473 269.043 C 1933.178 269.521, 1932.275 269.659, 1931.468 269.349 C 1930.661 269.040, 1930 269.234, 1930 269.782 C 1930 270.329, 1928.313 271.090, 1926.250 271.472 C 1924.188 271.853, 1921.150 272.756, 1919.500 273.477 C 1916.557 274.764, 1906.469 278.069, 1904.500 278.392 C 1903.950 278.482, 1903.050 278.822, 1902.500 279.147 C 1901.265 279.876, 1893.686 282.348, 1893 282.245 C 1892.725 282.204, 1891.938 282.637, 1891.250 283.207 C 1890.563 283.778, 1890 283.910, 1890 283.500 C 1890 283.090, 1889.438 283.198, 1888.750 283.740 C 1888.063 284.281, 1886.157 285.046, 1884.516 285.440 C 1882.874 285.834, 1879.149 287.246, 1876.236 288.578 C 1873.324 289.910, 1870.081 291, 1869.029 291 C 1867.978 291, 1866.888 291.372, 1866.607 291.827 C 1866.326 292.282, 1863.262 293.498, 1859.798 294.529 C 1856.334 295.560, 1853.275 296.711, 1853 297.086 C 1852.725 297.461, 1849.688 298.555, 1846.250 299.516 C 1842.813 300.477, 1840 301.613, 1840 302.039 C 1840 302.466, 1837.750 303.392, 1835 304.097 C 1832.250 304.801, 1830 305.743, 1830 306.189 C 1830 306.635, 1829.662 306.911, 1829.250 306.802 C 1828.287 306.548, 1824.564 307.769, 1819.500 310.001 C 1817.300 310.971, 1811.376 313.421, 1806.334 315.447 C 1801.293 317.472, 1795.461 320, 1793.373 321.065 C 1791.285 322.129, 1788.974 323, 1788.237 323 C 1787.499 323, 1785.232 323.894, 1783.198 324.986 C 1778.103 327.722, 1768.576 331.817, 1765.527 332.583 C 1764.137 332.931, 1763 333.560, 1763 333.978 C 1763 334.397, 1760.984 335.305, 1758.519 335.995 C 1756.054 336.685, 1753.524 337.868, 1752.897 338.625 C 1752.269 339.381, 1751.355 340, 1750.865 340 C 1750.376 340, 1746.494 341.682, 1742.238 343.738 C 1737.982 345.794, 1734.275 347.501, 1734 347.532 C 1732.896 347.655, 1717.399 355.436, 1716 356.569 C 1715.175 357.237, 1710.450 359.516, 1705.500 361.633 C 1700.550 363.751, 1694.975 366.500, 1693.110 367.742 C 1691.246 368.984, 1689.326 370, 1688.842 370 C 1688.359 370, 1685.159 371.701, 1681.732 373.780 C 1678.304 375.859, 1672.410 379.122, 1668.632 381.030 C 1656.185 387.319, 1654.505 388.229, 1654 388.954 C 1653.725 389.349, 1652.047 390.169, 1650.272 390.777 C 1648.496 391.384, 1646.471 392.366, 1645.772 392.959 C 1643.052 395.264, 1635.444 399.965, 1634.405 399.982 C 1633.803 399.992, 1630.595 401.755, 1627.278 403.899 C 1623.960 406.043, 1619.277 408.726, 1616.872 409.860 C 1614.468 410.993, 1610.700 413.054, 1608.500 414.438 C 1606.300 415.823, 1602.475 418.060, 1600 419.409 C 1597.525 420.759, 1593.025 423.465, 1590 425.423 C 1584.107 429.238, 1583.840 429.413, 1577 433.967 C 1574.525 435.615, 1571.938 436.972, 1571.250 436.982 C 1570.563 436.992, 1570 437.395, 1570 437.879 C 1570 438.362, 1568.697 439.297, 1567.105 439.956 C 1565.513 440.616, 1563.375 441.928, 1562.355 442.871 C 1561.335 443.815, 1557.575 446.344, 1554 448.490 C 1550.425 450.637, 1546.571 453.205, 1545.436 454.197 C 1544.300 455.188, 1542.838 456, 1542.186 456 C 1541.533 456, 1541 456.367, 1541 456.815 C 1541 457.263, 1539.537 458.391, 1537.750 459.323 C 1535.963 460.254, 1531.659 463.037, 1528.186 465.508 C 1524.713 467.978, 1521.643 470, 1521.364 470 C 1521.085 470, 1520.166 470.691, 1519.322 471.535 C 1517.863 472.994, 1507.574 480.400, 1504.122 482.475 C 1500.334 484.753, 1494.428 488.587, 1493.020 489.683 C 1482.635 497.766, 1469.367 507.790, 1464.856 510.962 C 1461.753 513.144, 1458.603 515.529, 1457.856 516.261 C 1457.110 516.993, 1452.900 520.237, 1448.500 523.470 C 1440.030 529.693, 1423.029 543.055, 1420.035 545.842 C 1419.055 546.754, 1416.925 548.501, 1415.301 549.724 C 1411.666 552.462, 1407.189 556.254, 1404.395 558.960 C 1403.237 560.082, 1402.020 561, 1401.690 561 C 1401.361 561, 1399.833 562.158, 1398.295 563.574 C 1392.419 568.986, 1390.332 570.788, 1385 575.057 C 1379.292 579.626, 1373.228 584.987, 1366.968 591 C 1364.964 592.925, 1360.479 596.975, 1357.002 600 C 1353.525 603.025, 1349.035 607.075, 1347.024 609 C 1345.013 610.925, 1338.226 617.225, 1331.941 623 C 1320.130 633.855, 1282.401 671.384, 1271.047 683.573 C 1267.498 687.383, 1259.623 695.643, 1253.547 701.928 C 1247.471 708.214, 1241.825 714.350, 1241 715.564 C 1240.175 716.778, 1236.712 720.860, 1233.305 724.636 C 1229.898 728.411, 1222.080 737.350, 1215.932 744.500 C 1209.784 751.650, 1202.447 760.161, 1199.627 763.412 C 1196.807 766.664, 1193.856 770.264, 1193.070 771.412 C 1192.283 772.561, 1188.908 776.645, 1185.570 780.490 C 1182.231 784.334, 1179.171 787.934, 1178.769 788.490 C 1178.367 789.045, 1174.992 793.325, 1171.269 798 C 1167.546 802.675, 1161.988 809.875, 1158.918 814 C 1150.073 825.884, 1138.568 841.376, 1137.765 842.485 C 1137.361 843.043, 1135.967 844.850, 1134.667 846.500 C 1133.367 848.150, 1128.096 855.800, 1122.954 863.500 C 1117.811 871.200, 1112.172 879.300, 1110.421 881.500 C 1108.670 883.700, 1103.822 890.675, 1099.646 897 C 1095.470 903.325, 1091.069 909.765, 1089.865 911.312 C 1088.661 912.858, 1086.571 916.233, 1085.220 918.812 C 1083.869 921.390, 1079.020 929.158, 1074.445 936.073 C 1069.870 942.989, 1064.781 951.089, 1063.137 954.073 C 1061.492 957.058, 1057.629 963.550, 1054.552 968.500 C 1051.475 973.450, 1048.405 978.625, 1047.729 980 C 1047.053 981.375, 1043.054 988.575, 1038.843 996 C 1016.481 1035.429, 978.539 1111.303, 965.085 1143.500 C 964.625 1144.600, 961.516 1152.025, 958.176 1160 C 949.368 1181.029, 943.025 1196.852, 941.339 1202 C 940.528 1204.475, 939.220 1207.918, 938.433 1209.651 C 937.645 1211.384, 937 1213.086, 937 1213.433 C 937 1213.780, 936.268 1215.737, 935.374 1217.782 C 933.045 1223.107, 927.770 1237.823, 920.958 1258 C 917.708 1267.625, 913.430 1280, 911.452 1285.500 C 909.473 1291, 907.700 1296.400, 907.512 1297.500 C 907.325 1298.600, 906.233 1302.538, 905.086 1306.250 C 900.309 1321.710, 898.798 1326.681, 897.870 1330 C 897.332 1331.925, 896.623 1334.175, 896.294 1335 C 895.333 1337.418, 895.134 1338.158, 893.548 1345.233 C 892.717 1348.937, 891.632 1352.762, 891.137 1353.733 C 890.642 1354.705, 889.722 1357.750, 889.093 1360.500 C 888.465 1363.250, 887.326 1367.750, 886.564 1370.500 C 885.801 1373.250, 884.426 1378.425, 883.509 1382 C 880.341 1394.346, 880.031 1395.522, 878.519 1400.932 C 877.683 1403.919, 877 1407.556, 877 1409.015 C 877 1410.473, 876.691 1411.976, 876.313 1412.354 C 875.935 1412.732, 875.503 1413.819, 875.352 1414.770 C 874.449 1420.479, 872.983 1427.264, 871.522 1432.500 C 870.144 1437.437, 867.155 1451.375, 865.517 1460.500 C 865.319 1461.600, 864.935 1463.400, 864.662 1464.500 C 862.975 1471.303, 862.053 1476.161, 861.531 1481 C 861.204 1484.025, 860.532 1487.850, 860.037 1489.500 C 859.542 1491.150, 858.646 1496.392, 858.045 1501.148 C 857.444 1505.905, 856.323 1511.980, 855.554 1514.648 C 854.784 1517.317, 853.890 1522.200, 853.567 1525.500 C 853.243 1528.800, 852.561 1533.275, 852.051 1535.445 C 851.540 1537.614, 851.307 1539.688, 851.532 1540.052 C 851.757 1540.416, 851.471 1543.366, 850.896 1546.607 C 850.321 1549.848, 849.689 1554.059, 849.492 1555.964 C 849.294 1557.869, 848.657 1562.144, 848.075 1565.464 C 847.494 1568.784, 846.577 1576, 846.037 1581.500 C 845.497 1587, 844.835 1593.300, 844.567 1595.500 C 844.298 1597.700, 843.860 1601.300, 843.593 1603.500 C 843.326 1605.700, 842.616 1612.225, 842.015 1618 C 841.415 1623.775, 840.721 1629.175, 840.474 1630 C 839.448 1633.424, 838.324 1647.364, 837.531 1666.500 C 837.257 1673.100, 836.540 1685.025, 835.939 1693 C 834.510 1711.920, 834.470 1811.544, 835.879 1838.500 C 836.483 1850.050, 837.205 1866.925, 837.483 1876 C 838.044 1894.283, 838.514 1899.740, 840.541 1911.500 C 841.300 1915.900, 842.427 1925.575, 843.046 1933 C 843.665 1940.425, 844.329 1947.625, 844.522 1949 C 844.716 1950.375, 845.115 1954.023, 845.410 1957.107 C 846.269 1966.092, 848.318 1981.609, 850.413 1995 C 850.628 1996.375, 851.064 1999.525, 851.381 2002 C 851.699 2004.475, 852.197 2007.625, 852.487 2009 C 852.778 2010.375, 853.269 2013.750, 853.579 2016.500 C 853.889 2019.250, 854.809 2024.200, 855.623 2027.500 C 856.960 2032.918, 858.908 2045.432, 859.448 2052.068 C 859.563 2053.480, 859.912 2055.055, 860.224 2055.568 C 860.536 2056.081, 861.080 2059.425, 861.433 2063 C 861.786 2066.575, 862.953 2072.456, 864.026 2076.070 C 865.099 2079.683, 866.136 2083.958, 866.329 2085.570 C 866.863 2090.019, 868.918 2099.494, 871.519 2109.500 C 872.805 2114.450, 874.159 2120.750, 874.526 2123.500 C 874.894 2126.250, 875.467 2128.942, 875.800 2129.482 C 876.133 2130.023, 876.467 2131.148, 876.542 2131.982 C 876.816 2135.018, 878.183 2140.633, 880.097 2146.585 C 881.173 2149.932, 882.267 2153.982, 882.528 2155.585 C 883.605 2162.195, 886.002 2171.862, 887.938 2177.405 C 889.072 2180.653, 890 2184.170, 890 2185.221 C 890 2186.272, 890.429 2187.932, 890.952 2188.911 C 891.476 2189.890, 892.141 2191.994, 892.430 2193.587 C 892.979 2196.617, 898.339 2215.150, 902.382 2228 C 903.680 2232.125, 905.490 2237.975, 906.404 2241 C 912.552 2261.336, 927.602 2305.442, 931.996 2316 C 933.713 2320.125, 935.943 2325.975, 936.952 2329 C 939.587 2336.899, 946.789 2355.644, 949.440 2361.500 C 950.685 2364.250, 953.392 2370.550, 955.455 2375.500 C 957.519 2380.450, 960.026 2386.333, 961.026 2388.574 C 966.031 2399.784, 978 2428.147, 978 2428.795 C 978 2429.203, 979.061 2431.103, 980.359 2433.018 C 981.656 2434.933, 983.068 2437.625, 983.496 2439 C 984.381 2441.842, 995.138 2464.204, 997.448 2468 C 998.284 2469.375, 1001.623 2475.900, 1004.867 2482.500 C 1014.240 2501.565, 1025.272 2522.861, 1029.993 2531 C 1032.385 2535.125, 1035.503 2540.603, 1036.921 2543.174 C 1038.968 2546.883, 1047.514 2561.564, 1056.500 2576.804 C 1057.050 2577.737, 1059.032 2581.200, 1060.905 2584.500 C 1062.778 2587.800, 1064.875 2591.175, 1065.564 2592 C 1066.254 2592.825, 1067.916 2595.525, 1069.257 2598 C 1071.321 2601.810, 1092.473 2635.056, 1103.252 2651.435 C 1105.039 2654.149, 1112.064 2664.049, 1118.864 2673.435 C 1125.665 2682.821, 1131.478 2691.175, 1131.782 2692 C 1132.087 2692.825, 1133.965 2695.525, 1135.956 2698 C 1137.947 2700.475, 1142.476 2706.550, 1146.021 2711.500 C 1152.686 2720.807, 1153.154 2721.421, 1159 2728.500 C 1164.612 2735.296, 1165.143 2735.978, 1173.421 2747 C 1177.758 2752.775, 1182.700 2759.117, 1184.403 2761.093 C 1186.106 2763.069, 1188.360 2765.769, 1189.411 2767.093 C 1190.461 2768.417, 1192.486 2770.903, 1193.911 2772.618 C 1195.335 2774.333, 1197.850 2777.456, 1199.500 2779.558 C 1201.150 2781.660, 1204.158 2785.207, 1206.184 2787.440 C 1208.210 2789.673, 1211.585 2793.571, 1213.684 2796.101 C 1221.637 2805.690, 1235.597 2821.192, 1255 2841.981 C 1256.375 2843.454, 1258.986 2846.424, 1260.802 2848.580 C 1265.608 2854.286, 1292.346 2882.174, 1300.408 2889.889 C 1304.208 2893.525, 1312.101 2901.225, 1317.948 2907 C 1329.254 2918.165, 1347.746 2935.203, 1354.853 2941 C 1359.948 2945.156, 1371.799 2955.873, 1377.562 2961.535 C 1379.821 2963.754, 1383.656 2967.127, 1386.084 2969.031 C 1388.513 2970.935, 1395.273 2976.545, 1401.107 2981.497 C 1406.941 2986.448, 1415.406 2993.425, 1419.918 2997 C 1424.430 3000.575, 1429.207 3004.440, 1430.534 3005.590 C 1431.860 3006.739, 1434.135 3008.539, 1435.588 3009.590 C 1437.042 3010.640, 1439.191 3012.284, 1440.365 3013.241 C 1445.783 3017.661, 1450.333 3021, 1450.936 3021 C 1451.300 3021, 1453.470 3022.800, 1455.760 3025 C 1458.049 3027.200, 1460.177 3029, 1460.488 3029 C 1460.798 3029, 1464.528 3031.695, 1468.776 3034.989 C 1473.024 3038.283, 1476.950 3041.324, 1477.500 3041.747 C 1478.050 3042.170, 1479.838 3043.376, 1481.474 3044.428 C 1483.110 3045.479, 1484.910 3046.706, 1485.474 3047.155 C 1486.038 3047.603, 1487.915 3049.102, 1489.644 3050.485 C 1491.374 3051.868, 1493.074 3053, 1493.424 3053 C 1493.982 3053, 1496.965 3055.164, 1507.158 3062.966 C 1508.620 3064.085, 1510.207 3065, 1510.685 3065 C 1511.163 3065, 1512.944 3066.237, 1514.644 3067.750 C 1518.024 3070.759, 1520.684 3072.648, 1523 3073.683 C 1523.825 3074.052, 1524.725 3074.612, 1525 3074.927 C 1525.275 3075.242, 1526.228 3075.950, 1527.119 3076.500 C 1528.009 3077.050, 1532.006 3079.750, 1536 3082.500 C 1539.994 3085.250, 1543.971 3087.950, 1544.836 3088.500 C 1555.886 3095.520, 1570.770 3105.218, 1571.750 3106.036 C 1572.438 3106.609, 1573.007 3106.724, 1573.015 3106.289 C 1573.024 3105.855, 1573.361 3105.950, 1573.765 3106.500 C 1574.169 3107.050, 1575.400 3108.047, 1576.500 3108.714 C 1577.600 3109.382, 1581.996 3112.082, 1586.270 3114.714 C 1590.543 3117.347, 1594.829 3119.950, 1595.794 3120.500 C 1596.759 3121.050, 1600.564 3123.412, 1604.250 3125.750 C 1607.936 3128.088, 1611.179 3130, 1611.458 3130 C 1611.737 3130, 1614.906 3131.800, 1618.500 3134 C 1622.094 3136.200, 1625.410 3138, 1625.868 3138 C 1626.325 3138, 1628.455 3139.259, 1630.600 3140.797 C 1632.745 3142.335, 1635.963 3144.190, 1637.750 3144.918 C 1639.537 3145.647, 1641 3146.603, 1641 3147.044 C 1641 3147.484, 1642.579 3148.366, 1644.509 3149.003 C 1646.439 3149.640, 1648.577 3150.687, 1649.259 3151.331 C 1649.942 3151.974, 1652.075 3153.272, 1654 3154.214 C 1655.925 3155.157, 1661.550 3158.205, 1666.500 3160.987 C 1671.450 3163.768, 1677.075 3166.720, 1679 3167.546 C 1680.925 3168.373, 1683.175 3169.491, 1684 3170.032 C 1684.825 3170.572, 1686.625 3171.548, 1688 3172.201 C 1689.375 3172.853, 1691.175 3173.898, 1692 3174.524 C 1692.825 3175.149, 1695.638 3176.450, 1698.250 3177.413 C 1700.863 3178.377, 1703 3179.578, 1703 3180.083 C 1703 3180.587, 1703.873 3181, 1704.941 3181 C 1706.009 3181, 1707.128 3181.398, 1707.428 3181.884 C 1708.105 3182.979, 1717.222 3187.449, 1718.250 3187.189 C 1718.662 3187.085, 1719 3187.340, 1719 3187.756 C 1719 3188.172, 1720.463 3189.124, 1722.250 3189.872 C 1730.853 3193.473, 1739.550 3197.510, 1740 3198.111 C 1740.275 3198.478, 1742.412 3199.350, 1744.750 3200.048 C 1747.088 3200.746, 1749 3201.660, 1749 3202.081 C 1749 3202.501, 1750.688 3203.387, 1752.750 3204.049 C 1754.813 3204.711, 1757.175 3205.818, 1758 3206.508 C 1758.825 3207.199, 1760.625 3208.100, 1762 3208.511 C 1763.375 3208.922, 1766.521 3210.325, 1768.992 3211.629 C 1771.463 3212.933, 1774.093 3214, 1774.838 3214 C 1775.582 3214, 1777.386 3214.657, 1778.846 3215.459 C 1782.941 3217.711, 1795.733 3223.404, 1803.500 3226.432 C 1815.299 3231.031, 1830.279 3237.118, 1834.695 3239.109 C 1837.002 3240.149, 1839.223 3241, 1839.629 3241 C 1840.036 3241, 1842.198 3241.846, 1844.434 3242.879 C 1848.776 3244.886, 1879.521 3256.042, 1889.500 3259.232 C 1892.800 3260.287, 1896.400 3261.550, 1897.500 3262.039 C 1900.718 3263.471, 1911.047 3266.967, 1917 3268.639 C 1920.025 3269.489, 1922.980 3270.580, 1923.567 3271.063 C 1924.877 3272.141, 1935.554 3275.678, 1943 3277.500 C 1946.025 3278.241, 1953 3280.244, 1958.500 3281.951 C 1964 3283.659, 1971.200 3285.749, 1974.500 3286.596 C 1977.800 3287.443, 1981.400 3288.532, 1982.500 3289.016 C 1984.269 3289.795, 2011.081 3296.720, 2027.500 3300.639 C 2030.800 3301.426, 2034.175 3302.360, 2035 3302.715 C 2035.825 3303.069, 2037.175 3303.497, 2038 3303.666 C 2047.717 3305.655, 2051.671 3306.611, 2052.551 3307.186 C 2053.129 3307.563, 2056.729 3308.383, 2060.551 3309.008 C 2064.373 3309.632, 2069.525 3310.744, 2072 3311.479 C 2074.475 3312.214, 2080.550 3313.573, 2085.500 3314.498 C 2090.450 3315.424, 2095.400 3316.404, 2096.500 3316.676 C 2098.360 3317.136, 2111.309 3319.518, 2117 3320.448 C 2118.375 3320.672, 2122.650 3321.525, 2126.500 3322.343 C 2130.350 3323.161, 2136.200 3324.150, 2139.500 3324.541 C 2142.800 3324.932, 2146.400 3325.474, 2147.500 3325.744 C 2148.600 3326.015, 2156.088 3327.250, 2164.139 3328.490 C 2172.191 3329.730, 2179.166 3330.977, 2179.639 3331.260 C 2180.113 3331.544, 2184.100 3332.069, 2188.500 3332.427 C 2192.900 3332.785, 2198.275 3333.483, 2200.445 3333.978 C 2202.614 3334.472, 2204.721 3334.673, 2205.126 3334.422 C 2205.531 3334.172, 2206.133 3334.405, 2206.463 3334.941 C 2206.794 3335.476, 2208.288 3335.898, 2209.783 3335.877 C 2213.582 3335.826, 2242.190 3338.895, 2243.922 3339.540 C 2244.704 3339.831, 2254.829 3340.726, 2266.422 3341.529 C 2278.015 3342.331, 2290.650 3343.419, 2294.500 3343.946 C 2298.350 3344.473, 2307.350 3345.147, 2314.500 3345.444 C 2321.650 3345.741, 2335.150 3346.317, 2344.500 3346.722 C 2365.703 3347.643, 2451.671 3347.638, 2470.500 3346.716 C 2478.200 3346.339, 2493.275 3345.753, 2504 3345.414 C 2514.725 3345.076, 2525.300 3344.422, 2527.500 3343.961 C 2529.700 3343.501, 2540.050 3342.606, 2550.500 3341.973 C 2560.950 3341.340, 2570.738 3340.435, 2572.250 3339.963 C 2573.814 3339.474, 2575 3339.483, 2575 3339.982 C 2575 3340.482, 2576.291 3340.490, 2578 3340 C 2579.650 3339.527, 2581 3339.349, 2581 3339.605 C 2581 3339.861, 2581.787 3339.653, 2582.750 3339.143 C 2583.713 3338.633, 2590.347 3337.900, 2597.493 3337.513 C 2604.639 3337.126, 2611.268 3336.392, 2612.223 3335.881 C 2613.178 3335.370, 2615.093 3335.236, 2616.479 3335.584 C 2617.888 3335.938, 2619 3335.785, 2619 3335.238 C 2619 3334.699, 2621.813 3333.938, 2625.250 3333.547 C 2628.688 3333.155, 2633.525 3332.601, 2636 3332.316 C 2638.475 3332.030, 2641.379 3331.821, 2642.454 3331.852 C 2643.529 3331.882, 2644.879 3331.520, 2645.454 3331.049 C 2646.029 3330.577, 2649.650 3329.893, 2653.500 3329.530 C 2657.350 3329.167, 2665 3327.997, 2670.500 3326.931 C 2676 3325.865, 2682.975 3324.725, 2686 3324.398 C 2689.025 3324.070, 2692.238 3323.408, 2693.140 3322.925 C 2694.042 3322.442, 2697.192 3321.812, 2700.140 3321.524 C 2703.088 3321.236, 2707.750 3320.537, 2710.500 3319.969 C 2713.250 3319.402, 2717.075 3318.701, 2719 3318.411 C 2720.925 3318.121, 2723.252 3317.666, 2724.170 3317.400 C 2725.089 3317.134, 2726.664 3316.723, 2727.670 3316.486 C 2728.677 3316.250, 2731.300 3315.617, 2733.500 3315.079 C 2738.603 3313.833, 2744.733 3312.895, 2748.250 3312.823 C 2749.762 3312.792, 2751 3312.420, 2751 3311.997 C 2751 3311.573, 2752.463 3310.958, 2754.250 3310.628 C 2761.165 3309.354, 2764.558 3308.766, 2766.018 3308.589 C 2766.852 3308.488, 2768 3308.118, 2768.569 3307.767 C 2769.137 3307.415, 2772.729 3306.617, 2776.551 3305.992 C 2780.373 3305.367, 2784.175 3304.577, 2785 3304.235 C 2785.825 3303.894, 2786.950 3303.546, 2787.500 3303.463 C 2788.050 3303.380, 2789.767 3302.792, 2791.315 3302.156 C 2792.863 3301.520, 2794.888 3300.995, 2795.815 3300.988 C 2796.742 3300.982, 2802 3299.828, 2807.500 3298.424 C 2813 3297.020, 2817.950 3295.776, 2818.500 3295.658 C 2819.050 3295.540, 2819.950 3295.178, 2820.500 3294.854 C 2821.050 3294.529, 2823.975 3293.731, 2827 3293.079 C 2830.025 3292.427, 2834.846 3291.206, 2837.713 3290.366 C 2840.581 3289.525, 2843.393 3289.125, 2843.963 3289.477 C 2844.534 3289.830, 2845 3289.713, 2845 3289.217 C 2845 3288.263, 2852.634 3285.484, 2854.750 3285.669 C 2855.438 3285.729, 2856 3285.349, 2856 3284.826 C 2856 3284.303, 2856.787 3283.972, 2857.750 3284.091 C 2858.713 3284.210, 2860.175 3284.052, 2861 3283.739 C 2866.517 3281.649, 2872.383 3280.119, 2873.125 3280.577 C 2873.606 3280.875, 2874 3280.673, 2874 3280.130 C 2874 3279.586, 2876.561 3278.610, 2879.690 3277.960 C 2882.820 3277.311, 2886.083 3276.378, 2886.940 3275.888 C 2890.287 3273.977, 2904.911 3269.136, 2909.347 3268.471 C 2911.920 3268.085, 2914.258 3267.391, 2914.544 3266.928 C 2914.830 3266.466, 2915.725 3266.341, 2916.532 3266.651 C 2917.339 3266.960, 2918 3266.716, 2918 3266.107 C 2918 3265.498, 2918.787 3264.997, 2919.750 3264.994 C 2920.713 3264.990, 2922.694 3264.365, 2924.153 3263.603 C 2925.613 3262.842, 2928.538 3261.674, 2930.653 3261.008 C 2932.769 3260.342, 2938.973 3258.215, 2944.439 3256.282 C 2949.906 3254.349, 2954.856 3252.663, 2955.439 3252.535 C 2956.023 3252.407, 2957.400 3251.967, 2958.500 3251.557 C 2959.600 3251.148, 2961.718 3250.358, 2963.207 3249.803 C 2964.696 3249.247, 2966.221 3248.878, 2966.595 3248.982 C 2966.970 3249.086, 2967.552 3248.764, 2967.888 3248.267 C 2968.435 3247.458, 2977.116 3243.646, 2977.760 3243.932 C 2977.903 3243.995, 2980.378 3243.030, 2983.260 3241.786 C 2986.142 3240.543, 2989.063 3239.652, 2989.750 3239.807 C 2990.438 3239.961, 2991 3239.654, 2991 3239.123 C 2991 3238.593, 2992.463 3237.846, 2994.250 3237.464 C 2996.037 3237.082, 2998.132 3236.259, 2998.904 3235.635 C 2999.676 3235.011, 3000.351 3234.679, 3000.404 3234.898 C 3000.457 3235.116, 3002.994 3234.115, 3006.043 3232.673 C 3009.092 3231.231, 3012.467 3229.880, 3013.543 3229.672 C 3014.619 3229.463, 3019.466 3227.417, 3024.312 3225.126 C 3029.159 3222.834, 3033.547 3221.220, 3034.062 3221.539 C 3034.578 3221.857, 3035 3221.677, 3035 3221.138 C 3035 3220.600, 3036.437 3219.843, 3038.193 3219.458 C 3039.950 3219.072, 3041.932 3218.211, 3042.598 3217.545 C 3043.264 3216.879, 3046.439 3215.510, 3049.655 3214.504 C 3052.870 3213.498, 3057.075 3211.660, 3059 3210.420 C 3062.559 3208.128, 3084.262 3198.345, 3087 3197.799 C 3087.825 3197.635, 3088.727 3197.202, 3089.004 3196.839 C 3089.516 3196.168, 3105.530 3188, 3106.333 3188 C 3106.574 3188, 3111.885 3185.263, 3118.136 3181.918 C 3124.386 3178.573, 3129.950 3175.733, 3130.500 3175.608 C 3132.465 3175.161, 3156.245 3162.553, 3176.500 3151.220 C 3180.900 3148.758, 3187.425 3145.149, 3191 3143.201 C 3194.575 3141.252, 3203.039 3136.351, 3209.809 3132.309 C 3216.579 3128.267, 3222.602 3124.857, 3223.194 3124.730 C 3223.786 3124.604, 3225.222 3123.672, 3226.385 3122.660 C 3227.548 3121.647, 3237.126 3115.501, 3247.668 3109.002 C 3258.210 3102.502, 3269.460 3095.381, 3272.668 3093.176 C 3275.876 3090.972, 3285.925 3084.340, 3295 3078.440 C 3304.075 3072.539, 3313.975 3065.833, 3317 3063.537 C 3323.914 3058.288, 3338.851 3048, 3339.557 3048 C 3339.849 3048, 3341.305 3046.863, 3342.794 3045.473 C 3344.282 3044.083, 3349.030 3040.371, 3353.345 3037.223 C 3373.920 3022.213, 3406.068 2997.320, 3412 2991.805 C 3415.590 2988.467, 3431.484 2975.181, 3441.091 2967.487 C 3470.897 2943.618, 3536.244 2880.128, 3581.115 2831.442 C 3595.624 2815.699, 3599.773 2810.871, 3612.175 2795.295 C 3614.746 2792.065, 3622.128 2783.366, 3628.579 2775.962 C 3638.392 2764.698, 3648.924 2751.564, 3666.209 2729.032 C 3683.615 2706.343, 3718.487 2656.784, 3733 2634.110 C 3737.675 2626.807, 3744.891 2615.582, 3749.036 2609.165 C 3760.588 2591.283, 3766.811 2581.051, 3777.599 2562.205 C 3783.045 2552.692, 3787.950 2544.142, 3788.500 2543.205 C 3796.874 2528.935, 3810.790 2502.470, 3828.898 2466.376 C 3841.710 2440.839, 3847.192 2429.042, 3858.343 2403 C 3872.276 2370.463, 3874.750 2364.533, 3880.457 2350 C 3883.589 2342.025, 3886.776 2333.925, 3887.538 2332 C 3890.301 2325.028, 3896.344 2308.375, 3898.061 2303 C 3899.028 2299.975, 3902.592 2289.625, 3905.981 2280 C 3909.371 2270.375, 3912.747 2260.475, 3913.486 2258 C 3914.224 2255.525, 3916.018 2249.675, 3917.473 2245 C 3918.928 2240.325, 3920.934 2233.575, 3921.930 2230 C 3922.927 2226.425, 3924.926 2220.246, 3926.371 2216.269 C 3927.817 2212.292, 3929 2208.479, 3929 2207.797 C 3929 2207.115, 3930.853 2199.794, 3933.118 2191.528 C 3940.674 2163.949, 3943.894 2151.619, 3947.487 2136.500 C 3949.448 2128.250, 3951.337 2120.825, 3951.685 2120 C 3952.033 2119.175, 3952.238 2118.138, 3952.141 2117.696 C 3952.044 2117.254, 3953.750 2108.029, 3955.934 2097.196 C 3963.426 2060.017, 3967.123 2040.490, 3967.993 2033.500 C 3968.472 2029.650, 3970.279 2018.400, 3972.008 2008.500 C 3973.737 1998.600, 3975.333 1988.779, 3975.554 1986.676 C 3975.775 1984.573, 3976.446 1979.173, 3977.045 1974.676 C 3977.644 1970.179, 3978.345 1964.250, 3978.603 1961.500 C 3978.861 1958.750, 3979.509 1953.125, 3980.043 1949 C 3981.390 1938.603, 3983.967 1907.550, 3984.483 1895.500 C 3984.719 1890, 3985.156 1881.225, 3985.454 1876 C 3985.752 1870.775, 3986.245 1858.850, 3986.550 1849.500 C 3987.174 1830.315, 3987.185 1702.535, 3986.564 1691 C 3985.742 1675.766, 3984.789 1654.244, 3984.547 1645.500 C 3984.319 1637.240, 3982.742 1616.655, 3981.406 1604.500 C 3980.629 1597.421, 3980.031 1591.287, 3979.555 1585.500 C 3979.330 1582.750, 3978.685 1578.195, 3978.122 1575.377 C 3977.560 1572.560, 3976.828 1566.485, 3976.496 1561.877 C 3976.164 1557.270, 3975.015 1548.325, 3973.942 1542 C 3972.869 1535.675, 3971.528 1527.350, 3970.962 1523.500 C 3970.396 1519.650, 3969.691 1514.925, 3969.395 1513 C 3969.099 1511.075, 3968.715 1508.150, 3968.543 1506.500 C 3968.249 1503.682, 3967.339 1499.224, 3963.341 1481 C 3962.436 1476.875, 3961.545 1472.375, 3961.362 1471 C 3961.178 1469.625, 3960.544 1466.025, 3959.953 1463 C 3959.362 1459.975, 3958.738 1456.600, 3958.568 1455.500 C 3958.397 1454.400, 3957.997 1452.825, 3957.680 1452 C 3957.160 1450.651, 3954.247 1435.501, 3953.545 1430.500 C 3953.391 1429.400, 3953.023 1427.825, 3952.729 1427 C 3952.434 1426.175, 3950.160 1416.725, 3947.675 1406 C 3945.189 1395.275, 3942.018 1382.388, 3940.627 1377.361 C 3939.236 1372.335, 3937.920 1367.160, 3937.703 1365.861 C 3937.485 1364.563, 3937.060 1362.825, 3936.758 1362 C 3936.456 1361.175, 3935.011 1356.225, 3933.548 1351 C 3922.871 1312.879, 3914.473 1285.123, 3911.148 1276.964 C 3910.596 1275.609, 3908.351 1269.325, 3906.159 1263 C 3898.837 1241.872, 3888.874 1213.539, 3887.521 1210 C 3886.785 1208.075, 3885.172 1203.800, 3883.937 1200.500 C 3882.702 1197.200, 3880.797 1192.475, 3879.705 1190 C 3878.612 1187.525, 3875.574 1180.100, 3872.953 1173.500 C 3870.332 1166.900, 3866.845 1158.575, 3865.205 1155 C 3863.564 1151.425, 3860.761 1145.125, 3858.975 1141 C 3857.190 1136.875, 3853.500 1128.775, 3850.774 1123 C 3848.049 1117.225, 3843.795 1108, 3841.320 1102.500 C 3835.205 1088.912, 3804.041 1025.869, 3802.515 1024 C 3801.841 1023.175, 3799.134 1018.450, 3796.498 1013.500 C 3793.863 1008.550, 3788.735 999.411, 3785.103 993.192 C 3781.472 986.972, 3777.825 980.678, 3777 979.204 C 3776.175 977.730, 3773.625 973.563, 3771.334 969.944 C 3769.043 966.325, 3764.841 959.120, 3761.996 953.932 C 3759.151 948.744, 3755.401 942.369, 3753.662 939.764 C 3751.923 937.160, 3749.375 933.147, 3748 930.847 C 3745.385 926.474, 3738.352 915.821, 3726.203 897.835 C 3722.241 891.970, 3719 886.682, 3719 886.085 C 3719 885.488, 3718.550 885, 3718 885 C 3717.450 885, 3717 884.363, 3717 883.583 C 3717 882.804, 3716.622 882.017, 3716.159 881.833 C 3715.696 881.650, 3711.122 875.425, 3705.993 868 C 3700.864 860.575, 3693.886 850.885, 3690.485 846.467 C 3687.085 842.049, 3683.748 837.398, 3683.070 836.132 C 3682.393 834.865, 3681.022 832.855, 3680.025 831.665 C 3676.401 827.337, 3669.321 818.272, 3661.542 808 C 3641.020 780.902, 3616.888 751.249, 3602.541 735.500 C 3598.031 730.550, 3591.270 722.900, 3587.517 718.500 C 3583.763 714.100, 3579.749 709.555, 3578.596 708.400 C 3573.684 703.479, 3554.478 682.780, 3552.576 680.357 C 3551.434 678.902, 3548.717 676.090, 3546.538 674.106 C 3544.360 672.123, 3534.220 662.175, 3524.006 652 C 3500.293 628.377, 3477.596 606.913, 3463.067 594.370 C 3456.779 588.942, 3447.499 580.900, 3442.445 576.500 C 3437.392 572.100, 3431.815 567.375, 3430.053 566 C 3428.290 564.625, 3425.645 562.458, 3424.174 561.184 C 3422.703 559.911, 3418.912 556.807, 3415.750 554.287 C 3412.588 551.767, 3410 549.352, 3410 548.920 C 3410 548.488, 3409.213 547.875, 3408.250 547.557 C 3407.287 547.239, 3404.438 545.071, 3401.919 542.740 C 3394.564 535.933, 3391.793 533.637, 3386.750 530.170 C 3384.137 528.374, 3382 526.506, 3382 526.019 C 3382 525.533, 3381.050 524.833, 3379.890 524.465 C 3377.874 523.825, 3374.785 521.536, 3370.829 517.750 C 3369.823 516.788, 3368.727 516, 3368.393 516 C 3367.832 516, 3359.491 509.829, 3355.973 506.810 C 3355.133 506.090, 3350.858 503.063, 3346.473 500.085 C 3342.088 497.107, 3335.575 492.370, 3332 489.558 C 3328.425 486.747, 3324.162 483.595, 3322.526 482.553 C 3320.890 481.512, 3319.090 480.297, 3318.526 479.853 C 3313.649 476.013, 3303.754 468.996, 3303.197 468.982 C 3302.538 468.965, 3294.648 463.976, 3292.500 462.218 C 3291.950 461.768, 3290.037 460.538, 3288.250 459.484 C 3286.463 458.431, 3285 457.216, 3285 456.784 C 3285 456.353, 3284.511 456, 3283.913 456 C 3283.004 456, 3274.626 450.626, 3273 449 C 3272.725 448.725, 3271.296 447.825, 3269.825 447 C 3262.660 442.982, 3241.628 429.771, 3240.330 428.473 C 3239.520 427.663, 3238.200 427, 3237.397 427 C 3236.594 427, 3235.678 426.325, 3235.362 425.500 C 3235.045 424.675, 3234.182 424, 3233.445 424 C 3232.707 424, 3230.889 422.875, 3229.405 421.500 C 3227.922 420.125, 3225.943 419, 3225.009 419 C 3224.075 419, 3222.512 418.118, 3221.536 417.040 C 3220.560 415.962, 3219.478 415.115, 3219.131 415.158 C 3217.460 415.367, 3216.217 414.852, 3214.439 413.217 C 3213.372 412.237, 3210.700 410.604, 3208.500 409.590 C 3206.300 408.575, 3203.825 407.178, 3203 406.484 C 3202.175 405.791, 3199.025 403.973, 3196 402.444 C 3192.975 400.915, 3189.749 399.028, 3188.831 398.250 C 3187.913 397.473, 3184.523 395.589, 3181.297 394.063 C 3178.071 392.537, 3174.772 390.662, 3173.966 389.895 C 3173.160 389.128, 3168.787 386.700, 3164.250 384.501 C 3159.713 382.301, 3156 380.164, 3156 379.751 C 3156 379.338, 3155.413 379, 3154.696 379 C 3153.979 379, 3149.141 376.741, 3143.946 373.980 C 3138.751 371.219, 3132.813 368.245, 3130.750 367.371 C 3128.688 366.498, 3127 365.417, 3127 364.971 C 3127 364.524, 3125.650 363.862, 3124 363.500 C 3122.350 363.138, 3121 362.488, 3121 362.056 C 3121 361.625, 3118.975 360.498, 3116.500 359.553 C 3114.025 358.608, 3112 357.504, 3112 357.100 C 3112 356.696, 3109.525 355.585, 3106.500 354.632 C 3103.475 353.678, 3101 352.471, 3101 351.949 C 3101 351.427, 3100.367 351, 3099.592 351 C 3098.818 351, 3096.006 349.904, 3093.342 348.565 C 3090.679 347.226, 3086.250 345.141, 3083.500 343.932 C 3071.640 338.718, 3063.249 334.843, 3059.802 332.989 C 3057.768 331.895, 3055.405 331, 3054.552 331 C 3053.698 331, 3053 330.600, 3053 330.111 C 3053 329.622, 3052.438 329.261, 3051.750 329.308 C 3050.306 329.407, 3040.745 325.075, 3040 323.984 C 3039.725 323.581, 3038.033 322.933, 3036.240 322.544 C 3034.447 322.155, 3032.422 321.311, 3031.740 320.668 C 3031.058 320.026, 3026.675 318.194, 3022 316.597 C 3017.325 315, 3011.475 312.787, 3009 311.679 C 3006.525 310.570, 3004.275 309.589, 3004 309.498 C 3003.725 309.407, 3002.243 308.811, 3000.706 308.174 C 2999.169 307.537, 2996.807 306.739, 2995.456 306.400 C 2994.105 306.061, 2993 305.467, 2993 305.081 C 2993 304.694, 2990.750 303.801, 2988 303.097 C 2985.250 302.392, 2983 301.380, 2983 300.849 C 2983 300.317, 2982.581 300.141, 2982.069 300.457 C 2981.557 300.774, 2980.856 300.575, 2980.510 300.016 C 2980.165 299.457, 2978.816 299, 2977.512 299 C 2976.209 299, 2974.436 298.293, 2973.571 297.429 C 2972.707 296.564, 2972 296.091, 2972 296.378 C 2972 296.855, 2969.589 295.973, 2961.500 292.534 C 2959.850 291.833, 2956.588 290.679, 2954.250 289.969 C 2951.912 289.260, 2950 288.254, 2950 287.733 C 2950 287.212, 2949.380 287.024, 2948.622 287.315 C 2947.864 287.606, 2946.739 287.339, 2946.122 286.722 C 2945.505 286.105, 2945 285.892, 2945 286.249 C 2945 286.606, 2943.313 286.178, 2941.250 285.298 C 2939.188 284.418, 2935.925 283.356, 2934 282.938 C 2932.075 282.520, 2927.350 280.974, 2923.500 279.503 C 2919.650 278.031, 2914.311 276.203, 2911.634 275.440 C 2908.958 274.677, 2906.258 273.631, 2905.634 273.116 C 2905.011 272.601, 2902.700 271.846, 2900.500 271.439 C 2898.300 271.031, 2895.600 270.140, 2894.500 269.458 C 2893.400 268.775, 2890.368 267.916, 2887.762 267.549 C 2885.156 267.182, 2882.424 266.281, 2881.692 265.549 C 2880.959 264.816, 2877.691 263.663, 2874.430 262.987 C 2871.168 262.311, 2867.375 261.283, 2866 260.704 C 2864.625 260.124, 2862.550 259.535, 2861.389 259.396 C 2860.228 259.256, 2857.303 258.222, 2854.889 257.098 C 2852.475 255.974, 2849.600 255.101, 2848.500 255.159 C 2846.240 255.277, 2831.350 251.395, 2828.897 250.047 C 2828.015 249.563, 2825.197 248.852, 2822.635 248.468 C 2820.072 248.084, 2817.725 247.364, 2817.419 246.868 C 2817.112 246.373, 2816.423 246.238, 2815.887 246.570 C 2815.351 246.901, 2814.370 246.726, 2813.706 246.180 C 2813.043 245.634, 2810.250 244.868, 2807.500 244.479 C 2804.750 244.089, 2801.150 243.178, 2799.500 242.454 C 2797.850 241.729, 2793.800 240.627, 2790.500 240.004 C 2787.200 239.381, 2782.475 238.273, 2780 237.543 C 2777.525 236.812, 2772.239 235.676, 2768.253 235.017 C 2764.268 234.358, 2760.766 233.430, 2760.471 232.953 C 2760.177 232.477, 2759.321 232.323, 2758.569 232.612 C 2757.817 232.900, 2756.905 232.656, 2756.542 232.068 C 2756.179 231.481, 2754.405 231, 2752.600 231 C 2750.795 231, 2747.109 230.312, 2744.409 229.472 C 2737.173 227.220, 2714.615 222.888, 2702.500 221.423 C 2699.750 221.091, 2695.223 220.177, 2692.441 219.394 C 2689.658 218.610, 2685.608 217.759, 2683.441 217.502 C 2681.273 217.246, 2677.475 216.802, 2675 216.516 C 2672.525 216.230, 2668.925 215.547, 2667 214.997 C 2663.702 214.056, 2640.426 210.025, 2635 209.456 C 2633.625 209.312, 2624.654 208.443, 2615.064 207.526 C 2605.475 206.609, 2596.250 205.632, 2594.564 205.356 C 2584.130 203.646, 2553.351 200.894, 2535 200.030 C 2511.134 198.906, 2501.490 198.101, 2498.500 196.984 C 2496.007 196.053, 2502.489 195.296, 2520 194.474 C 2532.450 193.889, 2548.339 192.411, 2552.895 191.414 C 2554.751 191.007, 2555.021 190.621, 2554.095 189.695 C 2553.181 188.781, 2522.391 188.494, 2423.200 188.473 C 2351.865 188.457, 2288.662 188.585, 2282.750 188.756 M 1505.666 1014.337 C 1504.365 1015.636, 1504.014 1016.953, 1504.465 1018.837 C 1505.697 1023.979, 1529.788 1089.050, 1537.642 1108.449 C 1543.986 1124.119, 1559.879 1165.740, 1566.404 1183.774 C 1569.443 1192.175, 1573.729 1203.650, 1575.928 1209.274 C 1578.127 1214.898, 1584.495 1231.650, 1590.079 1246.500 C 1595.662 1261.350, 1601.564 1276.875, 1603.195 1281 C 1604.825 1285.125, 1607.971 1293.450, 1610.185 1299.500 C 1615.517 1314.063, 1630.217 1353.052, 1638.840 1375.500 C 1642.643 1385.400, 1648.099 1400.025, 1650.965 1408 C 1653.830 1415.975, 1660.153 1432.625, 1665.015 1445 C 1669.878 1457.375, 1675.278 1471.325, 1677.017 1476 C 1678.755 1480.675, 1681.920 1489, 1684.050 1494.500 C 1695.817 1524.886, 1699.540 1534.679, 1703.629 1546 C 1711.744 1568.471, 1718.051 1585.150, 1726.595 1606.734 C 1731.218 1618.413, 1735 1628.245, 1735 1628.583 C 1735 1628.921, 1735.634 1630.616, 1736.408 1632.349 C 1737.182 1634.082, 1741.731 1646.075, 1746.516 1659 C 1751.301 1671.925, 1757.383 1688.125, 1760.033 1695 C 1762.682 1701.875, 1767.169 1713.800, 1770.003 1721.500 C 1772.837 1729.200, 1777.331 1741.125, 1779.989 1748 C 1791.387 1777.475, 1795.275 1787.630, 1802.575 1807 C 1806.824 1818.275, 1811.099 1829.750, 1812.075 1832.500 C 1813.050 1835.250, 1815.943 1842.900, 1818.502 1849.500 C 1826.758 1870.786, 1836.041 1895.160, 1841.164 1909 C 1843.913 1916.425, 1849.004 1929.925, 1852.477 1939 C 1855.950 1948.075, 1860.137 1959.100, 1861.781 1963.500 C 1867.427 1978.610, 1876.095 2001.503, 1877.494 2005 C 1884.422 2022.313, 1890.798 2039.090, 1895.546 2052.500 C 1906.512 2083.466, 1908.743 2089.597, 1912.896 2100.166 C 1915.200 2106.032, 1918.098 2112.332, 1919.334 2114.166 L 1921.582 2117.500 2045.247 2117.494 C 2131.176 2117.490, 2169.236 2117.164, 2169.974 2116.426 C 2170.558 2115.842, 2173.016 2109.769, 2175.435 2102.932 C 2177.854 2096.094, 2181.837 2085.325, 2184.286 2079 C 2186.736 2072.675, 2190.857 2061.875, 2193.446 2055 C 2196.034 2048.125, 2200.799 2035.750, 2204.034 2027.500 C 2209.680 2013.104, 2212.284 2006.221, 2219.551 1986.500 C 2221.375 1981.550, 2225.188 1971.650, 2228.024 1964.500 C 2230.861 1957.350, 2234.460 1947.900, 2236.022 1943.500 C 2237.585 1939.100, 2240.048 1932.575, 2241.496 1929 C 2242.944 1925.425, 2248.173 1911.700, 2253.116 1898.500 C 2262.264 1874.071, 2268.217 1858.488, 2277.057 1835.833 C 2279.776 1828.866, 2283.779 1818.291, 2285.954 1812.333 C 2288.128 1806.375, 2292.649 1794.300, 2296 1785.500 C 2299.351 1776.700, 2303.827 1764.775, 2305.948 1759 C 2308.068 1753.225, 2312.345 1741.975, 2315.452 1734 C 2324.251 1711.418, 2329.376 1697.952, 2336.383 1679 C 2339.942 1669.375, 2345.176 1655.650, 2348.015 1648.500 C 2350.854 1641.350, 2354.448 1631.900, 2356.002 1627.500 C 2357.557 1623.100, 2361.354 1612.975, 2364.440 1605 C 2367.526 1597.025, 2372.120 1585.100, 2374.648 1578.500 C 2377.176 1571.900, 2379.811 1565.150, 2380.504 1563.500 C 2381.197 1561.850, 2382.316 1558.700, 2382.992 1556.500 C 2383.667 1554.300, 2387.053 1545.300, 2390.517 1536.500 C 2393.981 1527.700, 2398.696 1515.325, 2400.994 1509 C 2408.462 1488.450, 2409.166 1486.573, 2411.500 1481 C 2412.767 1477.975, 2415.644 1470.451, 2417.892 1464.281 C 2420.141 1458.110, 2423.603 1448.885, 2425.586 1443.781 C 2427.569 1438.676, 2430.015 1432.250, 2431.022 1429.500 C 2432.029 1426.750, 2434.879 1419.325, 2437.356 1413 C 2441.898 1401.399, 2444.013 1395.787, 2452.425 1373 C 2454.963 1366.125, 2457.461 1359.600, 2457.975 1358.500 C 2458.490 1357.400, 2463.691 1343.675, 2469.533 1328 C 2475.375 1312.325, 2481.452 1296.350, 2483.037 1292.500 C 2486.890 1283.140, 2496.718 1256.861, 2498.932 1250 C 2499.908 1246.975, 2504.576 1234.825, 2509.305 1223 C 2514.035 1211.175, 2521.251 1192.500, 2525.340 1181.500 C 2541.140 1139.003, 2551.812 1110.948, 2559.195 1092.500 C 2561.396 1087, 2565.209 1076.875, 2567.669 1070 C 2570.129 1063.125, 2574.758 1050.731, 2577.957 1042.457 C 2585.074 1024.047, 2586.880 1016.451, 2584.665 1014.236 C 2583.315 1012.886, 2569.524 1012.698, 2465.319 1012.605 C 2365.797 1012.516, 2346.979 1012.720, 2344.144 1013.915 C 2340.210 1015.574, 2340.221 1015.551, 2329.427 1044.630 C 2318.386 1074.376, 2317.120 1077.849, 2315.067 1084 C 2311.914 1093.450, 2306.321 1108.244, 2303.536 1114.500 C 2300.656 1120.968, 2298.686 1126.187, 2293.531 1141 C 2291.712 1146.225, 2289.235 1152.750, 2288.025 1155.500 C 2284.949 1162.494, 2280.399 1174.692, 2270.681 1202 C 2262.356 1225.393, 2259.347 1233.493, 2256.748 1239.500 C 2255.321 1242.800, 2251.885 1251.800, 2249.113 1259.500 C 2246.341 1267.200, 2241.319 1280.700, 2237.954 1289.500 C 2234.589 1298.300, 2231.005 1307.750, 2229.991 1310.500 C 2228.976 1313.250, 2227.193 1317.975, 2226.028 1321 C 2224.863 1324.025, 2221.901 1332.125, 2219.445 1339 C 2216.990 1345.875, 2213.190 1356, 2211.001 1361.500 C 2208.812 1367, 2204.274 1378.925, 2200.917 1388 C 2197.560 1397.075, 2192.776 1409.900, 2190.285 1416.500 C 2187.795 1423.100, 2184.716 1431.425, 2183.444 1435 C 2178.537 1448.786, 2174.119 1460.721, 2171.970 1466 C 2170.738 1469.025, 2168.709 1474.200, 2167.460 1477.500 C 2166.211 1480.800, 2163.314 1488.225, 2161.023 1494 C 2158.732 1499.775, 2155.546 1508.325, 2153.944 1513 C 2152.341 1517.675, 2148.071 1529.375, 2144.456 1539 C 2140.840 1548.625, 2137.263 1558.525, 2136.505 1561 C 2135.748 1563.475, 2133.923 1568.650, 2132.449 1572.500 C 2126.158 1588.934, 2092.661 1686.036, 2089.156 1698 C 2088.593 1699.925, 2087.239 1703.975, 2086.148 1707 C 2085.058 1710.025, 2081.841 1719.925, 2079 1729 C 2076.160 1738.075, 2072.788 1747.975, 2071.508 1751 C 2069.339 1756.128, 2057.297 1792.278, 2053.427 1805.282 C 2052.481 1808.462, 2051.279 1811.327, 2050.757 1811.650 C 2049.073 1812.691, 2047.283 1809.671, 2045.035 1802 C 2043.826 1797.875, 2041.770 1791.125, 2040.466 1787 C 2039.162 1782.875, 2037.375 1776.575, 2036.496 1773 C 2035.616 1769.425, 2034.045 1764.250, 2033.005 1761.500 C 2030.406 1754.626, 2024.452 1736.259, 2021.497 1726 C 2020.150 1721.325, 2016.798 1710.975, 2014.049 1703 C 2011.299 1695.025, 2007.717 1684.225, 2006.089 1679 C 2004.461 1673.775, 2001.040 1663.875, 1998.486 1657 C 1995.933 1650.125, 1992.553 1640.363, 1990.976 1635.306 C 1989.399 1630.249, 1987.467 1624.849, 1986.682 1623.306 C 1985.896 1621.763, 1984.067 1616.675, 1982.616 1612 C 1981.164 1607.325, 1978.887 1600.800, 1977.555 1597.500 C 1976.223 1594.200, 1974.244 1588.800, 1973.158 1585.500 C 1969.969 1575.809, 1959.848 1547.898, 1951.038 1524.500 C 1938.289 1490.640, 1932.223 1474.240, 1928.084 1462.442 C 1926.529 1458.010, 1924.739 1453.510, 1924.107 1452.442 C 1922.983 1450.545, 1918.979 1439.523, 1912.888 1421.562 C 1911.221 1416.646, 1909.251 1411.453, 1908.511 1410.022 C 1907.771 1408.590, 1905.811 1403.612, 1904.156 1398.959 C 1900.182 1387.786, 1894.208 1371.403, 1888.490 1356 C 1885.938 1349.125, 1882.592 1339.874, 1881.054 1335.442 C 1879.515 1331.010, 1877.732 1326.510, 1877.092 1325.442 C 1876.452 1324.374, 1874.643 1319.675, 1873.073 1315 C 1869.215 1303.513, 1863.229 1287.175, 1861.532 1283.500 C 1859.786 1279.719, 1853.574 1262.805, 1850.397 1253.182 C 1849.068 1249.157, 1847.289 1244.526, 1846.444 1242.891 C 1845.598 1241.256, 1843.335 1235.549, 1841.416 1230.209 C 1839.496 1224.869, 1836.323 1216.225, 1834.364 1211 C 1832.405 1205.775, 1828.868 1196.100, 1826.504 1189.500 C 1821.765 1176.273, 1817.317 1164.202, 1811.028 1147.500 C 1808.749 1141.450, 1805.516 1132.675, 1803.843 1128 C 1802.169 1123.325, 1800.186 1118.150, 1799.435 1116.500 C 1798.684 1114.850, 1796.757 1109.900, 1795.151 1105.500 C 1791.815 1096.356, 1784.304 1076.274, 1779.816 1064.500 C 1778.138 1060.100, 1774.861 1051.100, 1772.532 1044.500 C 1762.752 1016.782, 1761.711 1014.537, 1757.906 1012.961 C 1755.784 1012.082, 1724.271 1011.879, 1631.293 1012.145 C 1512.771 1012.485, 1507.427 1012.578, 1505.666 1014.337 M 3151.500 1281.564 C 3149.850 1281.783, 3144 1282.475, 3138.500 1283.103 C 3114.366 1285.859, 3084.557 1293.424, 3062 1302.516 C 3045.843 1309.029, 3015.992 1325.889, 3004.775 1334.839 C 3001.561 1337.402, 2997.035 1341.003, 2994.716 1342.840 C 2983.661 1351.599, 2950.321 1383.842, 2944.918 1391 C 2938.903 1398.967, 2937.464 1400.273, 2936.312 1398.807 C 2935.058 1397.212, 2933.396 1384.924, 2931.471 1363 C 2930.674 1353.925, 2929.606 1343.350, 2929.098 1339.500 C 2928.590 1335.650, 2927.881 1326.650, 2927.523 1319.500 C 2926.776 1304.608, 2925.845 1301.283, 2922.123 1300.237 C 2918.632 1299.256, 2701.275 1299.283, 2697.765 1300.265 C 2695.934 1300.778, 2694.804 1301.934, 2694.344 1303.765 C 2693.966 1305.269, 2694.213 1317.750, 2694.893 1331.500 C 2698.765 1409.875, 2699.305 1479.050, 2699.911 1975.096 C 2700.408 2382.032, 2700.715 2457.952, 2701.872 2459.346 C 2703.135 2460.868, 2712.759 2461, 2822.015 2461 C 2929.396 2461, 2940.844 2460.848, 2941.393 2459.418 C 2941.727 2458.548, 2942 2360.935, 2942 2242.500 C 2942 2124.065, 2942.273 2026.452, 2942.607 2025.582 C 2943.655 2022.850, 2945.500 2023.836, 2948.537 2028.750 C 2952.284 2034.814, 2975.418 2058.608, 2988.790 2070.153 C 3019.765 2096.894, 3050.752 2113.758, 3089.464 2124.944 C 3107.619 2130.189, 3114.840 2131.386, 3154 2135.633 C 3178.802 2138.323, 3227.381 2136.107, 3253.500 2131.094 C 3288.736 2124.331, 3326.496 2109.710, 3351.498 2093.148 C 3360.160 2087.410, 3385.818 2068.434, 3391.312 2063.701 C 3397.966 2057.970, 3420.350 2032.755, 3430.048 2020.067 C 3455.750 1986.440, 3478.665 1939.490, 3492.333 1892.455 C 3498.065 1872.731, 3499.711 1866.077, 3501.969 1853.500 C 3503.154 1846.900, 3504.995 1837.225, 3506.061 1832 C 3508.077 1822.118, 3510.679 1799.991, 3513.645 1767.500 C 3516.058 1741.067, 3516.086 1685.957, 3513.699 1658.500 C 3511.213 1629.907, 3508.095 1603.395, 3506.460 1596.957 C 3505.686 1593.908, 3504.322 1586.497, 3503.429 1580.488 C 3502.536 1574.478, 3500.918 1566.173, 3499.833 1562.031 C 3498.748 1557.889, 3496.570 1549.301, 3494.993 1542.946 C 3493.416 1536.591, 3491.259 1529.166, 3490.200 1526.446 C 3489.141 1523.726, 3487.697 1519.025, 3486.991 1516 C 3483.788 1502.287, 3460.876 1450.562, 3449.834 1432.119 C 3441.203 1417.703, 3426.504 1395.984, 3419.308 1387.014 C 3410.407 1375.918, 3387.376 1352.251, 3378.500 1345.077 C 3362.151 1331.863, 3338.747 1317.028, 3322 1309.262 C 3295.510 1296.977, 3262.131 1287.957, 3226.400 1283.425 C 3215.221 1282.008, 3158.741 1280.604, 3151.500 1281.564 M 3091.500 1460.047 C 3082.591 1461.436, 3070.293 1464.603, 3062.675 1467.470 C 3035.205 1477.810, 3006.382 1500.033, 2978.333 1532.500 C 2961.053 1552.502, 2944.682 1576.498, 2943.006 1584.280 C 2942.201 1588.024, 2941.970 1623.002, 2942.191 1708 L 2942.500 1826.500 2945.872 1833 C 2949.001 1839.029, 2952.720 1845.076, 2961.863 1859 C 2971.695 1873.971, 2985.234 1890.077, 3003.500 1908.533 C 3017.803 1922.984, 3030.444 1932.018, 3050.841 1942.367 C 3065.543 1949.827, 3071.410 1951.774, 3090.431 1955.508 C 3103.287 1958.032, 3105.679 1958.203, 3121.431 1957.722 C 3135.698 1957.286, 3140.059 1956.770, 3148 1954.578 C 3159.104 1951.512, 3175.964 1943.618, 3184.500 1937.489 C 3203.245 1924.028, 3220.719 1900.490, 3233.860 1871 C 3235.698 1866.875, 3238.036 1861.635, 3239.057 1859.355 C 3248.106 1839.134, 3258.949 1793.319, 3262.968 1758.328 C 3264.705 1743.209, 3266.128 1704.432, 3265.475 1690 C 3264.558 1669.708, 3262.075 1641.392, 3260.521 1633.500 C 3259.763 1629.650, 3258.852 1624.475, 3258.498 1622 C 3257.628 1615.926, 3250.568 1588.738, 3246.812 1577 C 3238.266 1550.290, 3220.420 1516.957, 3206.021 1500.809 C 3191.055 1484.027, 3162.007 1467.014, 3139.500 1461.850 C 3129.213 1459.490, 3101.705 1458.456, 3091.500 1460.047 M 825.664 1693.489 C 824.065 1741.247, 825.321 1865.079, 827.384 1863.016 C 829.232 1861.168, 830.485 1767.989, 829.301 1720.500 C 828.112 1672.836, 826.706 1662.390, 825.664 1693.489 M 1557.238 2278.218 C 1555.574 2278.649, 1553.842 2279.789, 1553.388 2280.751 C 1552.150 2283.374, 1551.695 2414.232, 1552.865 2431.042 C 1553.668 2442.578, 1554.199 2445.673, 1555.547 2446.658 C 1556.871 2447.626, 1663.631 2447.905, 2058.065 2447.970 L 2558.901 2448.053 2560.068 2445.873 C 2560.934 2444.255, 2561.191 2422.814, 2561.064 2362.790 C 2560.971 2318.293, 2560.665 2281.290, 2560.385 2280.561 C 2560.105 2279.832, 2557.992 2278.870, 2555.688 2278.423 C 2550.304 2277.379, 1561.261 2277.176, 1557.238 2278.218 M 2149.500 3593.583 C 2146.750 3594.378, 2142.700 3595.553, 2140.500 3596.194 C 2120.122 3602.139, 2096.071 3619.971, 2079.946 3641.093 C 2073.310 3649.785, 2066.148 3661.616, 2059.694 3674.547 C 2055.746 3682.457, 2053.375 3688.076, 2048.514 3701.036 C 2046.909 3705.315, 2040.936 3726.822, 2038.665 3736.500 C 2031.900 3765.328, 2028.742 3812.785, 2030.945 3852.500 C 2032.102 3873.347, 2032.401 3876.258, 2035.363 3895.500 C 2040.746 3930.476, 2053.613 3967.314, 2069.257 3992.542 C 2084.047 4016.393, 2103.448 4035.157, 2123.711 4045.208 C 2131.621 4049.131, 2136.173 4050.793, 2151 4055.171 C 2157.206 4057.004, 2196.537 4057.015, 2203.500 4055.187 C 2206.250 4054.465, 2210.300 4053.401, 2212.500 4052.823 C 2216.475 4051.779, 2218.212 4051.189, 2223 4049.260 C 2254.937 4036.395, 2282.334 4006.633, 2297.342 3968.500 C 2303.722 3952.289, 2309.676 3928.397, 2312.473 3907.783 C 2313.062 3903.437, 2312.931 3903.022, 2310.806 3902.504 C 2309.538 3902.195, 2293.425 3902.067, 2275 3902.221 L 2241.500 3902.500 2238.872 3912.500 C 2233.077 3934.556, 2224.712 3948.435, 2212.140 3956.850 C 2200.264 3964.801, 2192.492 3967, 2176.272 3967 C 2163.434 3967, 2159.638 3966.164, 2148.500 3960.882 C 2145.750 3959.578, 2142.972 3958.059, 2142.326 3957.506 C 2141.680 3956.953, 2138.959 3954.712, 2136.279 3952.527 C 2119.996 3939.252, 2108.224 3914.859, 2102.045 3881.592 C 2099.091 3865.689, 2099.074 3865.538, 2097.971 3845.078 C 2096.661 3820.784, 2098.088 3790.586, 2101.475 3770.947 C 2107.666 3735.041, 2121.562 3706.863, 2140.006 3692.812 C 2144.637 3689.284, 2154.769 3684, 2156.902 3684 C 2157.836 3684, 2159.162 3683.438, 2159.850 3682.750 C 2161.656 3680.943, 2189.283 3681.029, 2194 3682.855 C 2207.832 3688.212, 2217.498 3695.597, 2225.058 3706.583 C 2230.146 3713.977, 2235.537 3727.355, 2237.933 3738.528 C 2239.109 3744.013, 2240.310 3749.287, 2240.603 3750.250 C 2241.096 3751.874, 2243.689 3752, 2276.508 3752 C 2296.876 3752, 2312.122 3751.611, 2312.449 3751.083 C 2313.064 3750.087, 2312.187 3743.592, 2309.131 3726.500 C 2297.423 3661.033, 2263.840 3613.250, 2218.471 3597.504 C 2204.627 3592.699, 2199.380 3592.021, 2176.500 3592.081 C 2160.445 3592.124, 2153.149 3592.530, 2149.500 3593.583 M 172 3824.494 L 172 4050.027 204.750 4049.764 L 237.500 4049.500 237.756 3966.250 L 238.011 3883 270.256 3882.999 C 303.389 3882.997, 312.152 3882.259, 323.500 3878.514 C 364.077 3865.125, 391.429 3823.635, 397.521 3766.235 C 405.210 3693.784, 381.601 3631.574, 337.947 3609.253 C 333.851 3607.158, 328.475 3604.844, 326 3604.109 C 323.525 3603.373, 320.600 3602.404, 319.500 3601.954 C 314.532 3599.923, 306.449 3599.650, 241.250 3599.315 L 172 3598.960 172 3824.494 M 411.239 3638.750 L 411.500 3678.500 454.247 3678.761 L 496.995 3679.021 497.247 3864.261 L 497.500 4049.500 530.250 4049.764 L 563 4050.027 563 3864.524 L 563 3679.021 606.250 3678.761 L 649.500 3678.500 649.761 3638.750 L 650.023 3599 530.500 3599 L 410.977 3599 411.239 3638.750 M 744 3600.750 C 744 3602.868, 746.064 3613.504, 749.482 3629 C 750.877 3635.325, 754.088 3650.175, 756.618 3662 C 762.900 3691.370, 767.082 3710.791, 772.120 3734 C 773.254 3739.225, 775.030 3747.550, 776.066 3752.500 C 777.102 3757.450, 779.105 3766.675, 780.517 3773 C 781.929 3779.325, 783.956 3788.775, 785.022 3794 C 786.087 3799.225, 788.106 3808.675, 789.509 3815 C 790.912 3821.325, 792.913 3830.550, 793.955 3835.500 C 794.998 3840.450, 796.829 3849, 798.024 3854.500 C 799.219 3860, 801.301 3869.675, 802.651 3876 C 804.002 3882.325, 805.971 3891.550, 807.028 3896.500 C 808.085 3901.450, 810.997 3914.950, 813.498 3926.500 C 815.999 3938.050, 819.824 3955.825, 821.996 3966 C 824.169 3976.175, 827.093 3989.675, 828.494 3996 C 829.896 4002.325, 831.711 4010.875, 832.527 4015 C 833.343 4019.125, 834.645 4025.200, 835.419 4028.500 C 836.193 4031.800, 837.572 4037.988, 838.482 4042.250 L 840.136 4050 890.009 4050 C 919.490 4050, 940.116 4049.622, 940.454 4049.075 C 940.768 4048.566, 942.195 4042.603, 943.625 4035.825 C 948.793 4011.327, 949.850 4006.347, 951.871 3997 C 953.001 3991.775, 955.080 3982.100, 956.492 3975.500 C 957.903 3968.900, 959.997 3959.225, 961.144 3954 C 962.292 3948.775, 964.032 3940.675, 965.012 3936 C 965.992 3931.325, 967.984 3922.100, 969.440 3915.500 C 970.896 3908.900, 972.932 3899.450, 973.965 3894.500 C 974.997 3889.550, 977.015 3880.100, 978.450 3873.500 C 981.105 3861.281, 982.915 3852.873, 987.490 3831.500 C 988.902 3824.900, 990.988 3815.225, 992.125 3810 C 993.263 3804.775, 994.808 3797.575, 995.560 3794 C 996.312 3790.425, 998.301 3781.200, 999.981 3773.500 C 1001.661 3765.800, 1003.924 3755.225, 1005.010 3750 C 1006.096 3744.775, 1007.888 3736.450, 1008.992 3731.500 C 1010.841 3723.207, 1012.772 3714.270, 1018.174 3689 C 1020.359 3678.776, 1022.314 3669.670, 1026.544 3650 C 1034.199 3614.408, 1037 3600.986, 1037 3599.890 C 1037 3599.348, 1022.825 3599.081, 1002.250 3599.237 L 967.500 3599.500 964.845 3612.500 C 958.195 3645.059, 948.604 3692.368, 946.905 3701 C 945.876 3706.225, 943.050 3720.175, 940.624 3732 C 938.198 3743.825, 933.246 3768.125, 929.620 3786 C 925.993 3803.875, 919.853 3834.025, 915.974 3853 C 912.096 3871.975, 908.278 3890.875, 907.491 3895 C 906.703 3899.125, 903.783 3913.525, 901.003 3927 C 898.222 3940.475, 894.813 3957.108, 893.428 3963.962 C 892.042 3970.816, 890.781 3976.552, 890.625 3976.708 C 890.260 3977.073, 888.259 3968.575, 886.456 3959 C 885.680 3954.875, 883.955 3946.325, 882.623 3940 C 881.291 3933.675, 878.363 3919.500, 876.115 3908.500 C 873.868 3897.500, 869.758 3877.475, 866.983 3864 C 864.208 3850.525, 861.077 3835.225, 860.026 3830 C 858.975 3824.775, 856.053 3810.600, 853.533 3798.500 C 851.013 3786.400, 847.126 3767.500, 844.896 3756.500 C 842.667 3745.500, 839.708 3731.100, 838.322 3724.500 C 836.936 3717.900, 834.991 3708.450, 834 3703.500 C 833.009 3698.550, 831.016 3688.875, 829.570 3682 C 828.125 3675.125, 826.058 3665, 824.978 3659.500 C 823.898 3654, 821.887 3644.100, 820.510 3637.500 C 819.132 3630.900, 816.802 3619.537, 815.331 3612.250 L 812.657 3599 778.329 3599 C 746.301 3599, 744 3599.117, 744 3600.750 M 1059.464 3600.245 C 1059.202 3600.935, 1059.103 3702.300, 1059.244 3825.500 L 1059.500 4049.500 1159.938 4049.755 C 1239.628 4049.957, 1260.541 4049.750, 1261.173 4048.755 C 1262.209 4047.123, 1262.216 3971.888, 1261.180 3970.257 C 1260.566 3969.291, 1245.377 3968.957, 1192.945 3968.757 L 1125.500 3968.500 1125.500 3914 L 1125.500 3859.500 1186.733 3859.242 L 1247.966 3858.985 1248.512 3856.742 C 1248.812 3855.509, 1248.932 3838.300, 1248.779 3818.500 L 1248.500 3782.500 1186.750 3782.242 L 1125 3781.985 1125 3730.492 L 1125 3679 1192.378 3679 C 1248.134 3679, 1259.951 3678.764, 1260.890 3677.633 C 1261.702 3676.654, 1261.950 3665.383, 1261.762 3637.883 L 1261.500 3599.500 1160.720 3599.245 C 1080.624 3599.043, 1059.843 3599.248, 1059.464 3600.245 M 1296 3824.500 L 1296 4050 1328.393 4050 C 1357.250 4050, 1360.853 4049.824, 1361.404 4048.390 C 1361.744 4047.504, 1362.007 4008.692, 1361.989 3962.140 L 1361.955 3877.500 1379.591 3877.500 L 1397.226 3877.500 1408.581 3914.500 C 1414.827 3934.850, 1420.591 3953.525, 1421.391 3956 C 1422.190 3958.475, 1424.266 3965.225, 1426.004 3971 C 1427.742 3976.775, 1430.902 3987.125, 1433.026 3994 C 1435.151 4000.875, 1439.911 4016.287, 1443.604 4028.250 L 1450.319 4050 1487.159 4050 C 1528.478 4050, 1525.453 4050.638, 1522.560 4042.533 C 1521.768 4040.315, 1515.202 4020.275, 1507.969 3998 C 1500.736 3975.725, 1493.108 3952.325, 1491.018 3946 C 1481.954 3918.564, 1465 3866.318, 1465 3865.820 C 1465 3865.520, 1468.064 3862.997, 1471.808 3860.212 C 1485.999 3849.660, 1499.075 3833.017, 1506.587 3815.947 C 1518.321 3789.281, 1523.602 3755.575, 1521.172 3722.860 C 1517.439 3672.603, 1499.117 3634.513, 1468.992 3614.381 C 1461.688 3609.499, 1453.057 3605, 1450.997 3605 C 1450.434 3605, 1449.191 3604.594, 1448.236 3604.097 C 1447.281 3603.601, 1444.700 3602.737, 1442.500 3602.177 C 1440.300 3601.617, 1436.648 3600.673, 1434.384 3600.079 C 1431.635 3599.359, 1407.964 3599, 1363.134 3599 L 1296 3599 1296 3824.500 M 1536.239 3638.750 L 1536.500 3678.500 1579.750 3678.761 L 1623 3679.021 1623 3864.511 L 1623 4050 1655.500 4050 L 1688 4050 1688 3864.511 L 1688 3679.021 1731.250 3678.761 L 1774.500 3678.500 1774.761 3638.750 L 1775.023 3599 1655.500 3599 L 1535.977 3599 1536.239 3638.750 M 1799.248 3824.250 L 1799.500 4049.500 1900.261 4049.755 L 2001.023 4050.010 2000.761 4009.755 L 2000.500 3969.500 1932.750 3969.243 L 1865 3968.986 1865 3913.993 L 1865 3859 1926.500 3859 L 1988 3859 1988 3820.500 L 1988 3782 1926.500 3782 L 1865 3782 1865 3730.507 L 1865 3679.014 1932.750 3678.757 L 2000.500 3678.500 2000.761 3638.750 L 2001.023 3599 1900.009 3599 L 1798.996 3599 1799.248 3824.250 M 2348.462 3600.250 C 2348.201 3600.938, 2348.103 3702.300, 2348.244 3825.500 L 2348.500 4049.500 2381.250 4049.764 L 2414 4050.027 2414 3954.514 L 2414 3859 2474.495 3859 L 2534.990 3859 2535.245 3954.250 L 2535.500 4049.500 2568.250 4049.764 L 2601 4050.027 2601 3824.500 L 2601 3598.973 2568.250 3599.236 L 2535.500 3599.500 2535.245 3689.250 L 2534.989 3779 2474.495 3779 L 2414 3779 2414 3689 L 2414 3599 2381.469 3599 C 2356.363 3599, 2348.829 3599.285, 2348.462 3600.250 M 2730.462 3600.250 C 2730.201 3600.938, 2730.103 3702.300, 2730.244 3825.500 L 2730.500 4049.500 2763.250 4049.764 L 2796 4050.027 2796 3966.514 L 2796 3883 2828.168 3883 C 2857.710 3883, 2869.092 3882.297, 2876 3880.047 C 2877.375 3879.599, 2880.525 3878.630, 2883 3877.893 C 2889.477 3875.967, 2901.541 3869.597, 2907.673 3864.866 C 2919.435 3855.792, 2932.003 3839.975, 2939.797 3824.440 C 2946.852 3810.377, 2954.063 3783.173, 2955.991 3763.347 C 2957.204 3750.872, 2957.205 3731.521, 2955.993 3718.071 C 2952.644 3680.907, 2939.741 3648.444, 2920.048 3627.638 C 2914.441 3621.714, 2903.740 3613, 2902.072 3613 C 2901.574 3613, 2901.017 3612.661, 2900.833 3612.246 C 2899.759 3609.814, 2883.077 3603.318, 2869.736 3600.136 C 2862.575 3598.428, 2731.114 3598.536, 2730.462 3600.250 M 2986 3824.505 L 2986 4050.010 3086.750 4049.755 L 3187.500 4049.500 3187.500 4009.500 L 3187.500 3969.500 3119.750 3969.243 L 3052 3968.986 3052 3914.001 L 3052 3859.015 3113.250 3858.758 L 3174.500 3858.500 3174.762 3820.250 L 3175.024 3782 3113.512 3782 L 3052 3782 3052 3730.507 L 3052 3679.014 3119.750 3678.757 L 3187.500 3678.500 3187.761 3638.750 L 3188.023 3599 3087.011 3599 L 2986 3599 2986 3824.505 M 3222.462 3600.250 C 3222.201 3600.938, 3222.103 3702.300, 3222.244 3825.500 L 3222.500 4049.500 3255 4049.500 L 3287.500 4049.500 3287.756 3963.250 L 3288.011 3877 3305.869 3877 L 3323.726 3877 3325.468 3882.750 C 3326.425 3885.912, 3328.265 3891.875, 3329.555 3896 C 3330.846 3900.125, 3333.748 3909.575, 3336.005 3917 C 3342.370 3937.939, 3347.853 3955.778, 3350.453 3964 C 3351.757 3968.125, 3354.025 3975.550, 3355.493 3980.500 C 3356.961 3985.450, 3358.752 3991.300, 3359.474 3993.500 C 3360.196 3995.700, 3361.949 4001.325, 3363.370 4006 C 3364.791 4010.675, 3368.362 4022.375, 3371.305 4032 L 3376.655 4049.500 3413.015 4049.763 C 3433.013 4049.907, 3449.755 4049.645, 3450.221 4049.179 C 3450.993 4048.407, 3447.908 4038.425, 3431.003 3987 C 3427.839 3977.375, 3420.855 3956, 3415.484 3939.500 C 3403.142 3901.590, 3392.394 3868.993, 3391.524 3866.837 C 3391.017 3865.581, 3392.398 3864.126, 3397.176 3860.883 C 3409.667 3852.407, 3423.256 3836.284, 3431.290 3820.407 C 3437.025 3809.074, 3443.902 3785.977, 3446.204 3770.319 C 3447.926 3758.603, 3447.863 3716.222, 3446.107 3705.500 C 3440.743 3672.744, 3429.517 3647.374, 3412.216 3628.912 C 3397.400 3613.102, 3383.564 3605.358, 3360.736 3600.098 C 3353.481 3598.426, 3223.101 3598.570, 3222.462 3600.250 M 3480 3824.479 L 3480 4050 3539.250 4050.007 C 3575.054 4050.011, 3601.666 4049.596, 3606.500 4048.960 C 3620.653 4047.097, 3631.813 4044.470, 3640.750 4040.899 C 3641.988 4040.405, 3644.012 4039.610, 3645.250 4039.134 C 3666.398 4030.992, 3689.005 4011.548, 3703.538 3989 C 3729.020 3949.464, 3742 3893.732, 3742 3823.850 C 3742 3805.127, 3738.900 3758.266, 3737.514 3756.022 C 3737.304 3755.682, 3736.408 3751.151, 3735.523 3745.952 C 3724.344 3680.261, 3694.423 3632.595, 3651.500 3612.098 C 3647.650 3610.259, 3643.600 3608.420, 3642.500 3608.011 C 3641.400 3607.602, 3639.375 3606.809, 3638 3606.248 C 3634.859 3604.966, 3622.767 3601.740, 3616 3600.377 C 3614.075 3599.990, 3582.688 3599.512, 3546.250 3599.315 L 3480 3598.958 3480 3824.479 M 3837.675 3602.250 C 3837.352 3604.037, 3835.907 3610.900, 3834.463 3617.500 C 3831.685 3630.196, 3829.545 3640.160, 3826.087 3656.500 C 3824.923 3662, 3822.903 3671.450, 3821.599 3677.500 C 3820.294 3683.550, 3817.340 3697.275, 3815.033 3708 C 3809.321 3734.563, 3805.048 3754.349, 3799.486 3780 C 3797.995 3786.875, 3795.972 3796.325, 3794.991 3801 C 3794.010 3805.675, 3792.024 3814.900, 3790.579 3821.500 C 3789.134 3828.100, 3787.310 3836.650, 3786.525 3840.500 C 3785.741 3844.350, 3783.711 3853.800, 3782.013 3861.500 C 3780.316 3869.200, 3778.013 3879.775, 3776.896 3885 C 3773.136 3902.589, 3770.807 3913.453, 3768.964 3922 C 3767.956 3926.675, 3766.028 3935.675, 3764.680 3942 C 3760.366 3962.234, 3754.131 3991.149, 3751.526 4003 C 3750.136 4009.325, 3748.106 4018.775, 3747.015 4024 C 3745.924 4029.225, 3744.365 4036.425, 3743.551 4040 C 3741.009 4051.158, 3737.263 4050, 3775.892 4050 L 3809.785 4050 3811.344 4043.250 C 3812.841 4036.774, 3815.879 4022.071, 3826.994 3967.500 C 3829.794 3953.750, 3832.649 3940.025, 3833.338 3937 L 3834.591 3931.500 3887.725 3931.241 L 3940.860 3930.983 3942.419 3938.241 C 3944.292 3946.966, 3953.806 3994.187, 3960.403 4027.500 C 3961.274 4031.900, 3962.695 4038.762, 3963.562 4042.750 L 3965.136 4050 3999.568 4050 C 4032.993 4050, 4034 4049.943, 4034 4048.058 C 4034 4046.242, 4029.306 4023.462, 4023.478 3997 C 4022.085 3990.675, 4020.305 3982.350, 4019.522 3978.500 C 4018.740 3974.650, 4016.705 3965.200, 4015 3957.500 C 4013.295 3949.800, 4011.260 3940.350, 4010.478 3936.500 C 4009.695 3932.650, 4007.908 3924.325, 4006.506 3918 C 4005.105 3911.675, 4003.070 3902.225, 4001.984 3897 C 4000.899 3891.775, 3998.934 3882.550, 3997.619 3876.500 C 3996.303 3870.450, 3993.340 3856.725, 3991.033 3846 C 3988.727 3835.275, 3985.723 3821.325, 3984.357 3815 C 3980.257 3796.011, 3978.349 3787.132, 3975.546 3774 C 3972.614 3760.261, 3970.338 3749.712, 3967.024 3734.500 C 3965.826 3729, 3963.804 3719.550, 3962.531 3713.500 C 3961.258 3707.450, 3959.286 3698.225, 3958.148 3693 C 3949.644 3653.952, 3947.705 3644.905, 3945.503 3634 C 3944.670 3629.875, 3943.355 3623.800, 3942.581 3620.500 C 3941.807 3617.200, 3940.428 3611.012, 3939.518 3606.750 L 3937.864 3599 3888.063 3599 L 3838.262 3599 3837.675 3602.250 M 4056.467 3600.238 C 4056.203 3600.932, 4056.103 3702.300, 4056.244 3825.500 L 4056.500 4049.500 4089 4049.500 L 4121.500 4049.500 4122 3895.545 L 4122.500 3741.590 4127.877 3755.545 C 4130.835 3763.220, 4134.739 3773.325, 4136.554 3778 C 4138.369 3782.675, 4147.117 3805.400, 4155.994 3828.500 C 4171.123 3867.867, 4173.546 3874.158, 4179.487 3889.500 C 4184.883 3903.435, 4194.333 3927.973, 4196.624 3934 C 4197.984 3937.575, 4199.722 3942.075, 4200.488 3944 C 4201.254 3945.925, 4203.520 3951.775, 4205.525 3957 C 4207.530 3962.225, 4210.226 3969.200, 4211.517 3972.500 C 4218.793 3991.102, 4235.556 4034.678, 4238.161 4041.762 L 4241.198 4050.024 4278.849 4049.762 L 4316.500 4049.500 4316.752 3824.236 L 4317.004 3598.973 4284.252 3599.236 L 4251.500 3599.500 4251 3753.391 L 4250.500 3907.282 4248.312 3901.391 C 4247.108 3898.151, 4244.717 3891.900, 4242.998 3887.500 C 4241.280 3883.100, 4238.350 3875.450, 4236.487 3870.500 C 4234.625 3865.550, 4231.793 3858.125, 4230.194 3854 C 4224.206 3838.548, 4210.608 3803.282, 4208.409 3797.500 C 4207.154 3794.200, 4203.450 3784.525, 4200.177 3776 C 4196.905 3767.475, 4190.105 3749.700, 4185.066 3736.500 C 4180.028 3723.300, 4175.500 3711.600, 4175.005 3710.500 C 4174.028 3708.328, 4172.942 3705.506, 4161.531 3675.500 C 4157.348 3664.500, 4153.449 3654.375, 4152.868 3653 C 4152.286 3651.625, 4148.189 3641.050, 4143.763 3629.500 C 4139.337 3617.950, 4134.924 3606.475, 4133.958 3604 L 4132.201 3599.500 4094.574 3599.238 C 4065.007 3599.032, 4056.844 3599.246, 4056.467 3600.238 M 4436.142 3603.241 C 4435.525 3605.583, 4433.635 3614.025, 4431.943 3622 C 4419.709 3679.668, 4415.240 3700.432, 4413.973 3705.500 C 4413.423 3707.700, 4412.306 3712.875, 4411.492 3717 C 4410.678 3721.125, 4408.880 3729.675, 4407.496 3736 C 4406.113 3742.325, 4404.086 3751.775, 4402.992 3757 C 4401.897 3762.225, 4399.857 3771.675, 4398.458 3778 C 4397.059 3784.325, 4395.271 3792.650, 4394.484 3796.500 C 4393.698 3800.350, 4391.906 3808.675, 4390.502 3815 C 4389.098 3821.325, 4387.097 3830.550, 4386.054 3835.500 C 4385.011 3840.450, 4382.978 3849.900, 4381.535 3856.500 C 4380.093 3863.100, 4378.073 3872.550, 4377.047 3877.500 C 4374.832 3888.191, 4372.009 3901.249, 4368.507 3917 C 4367.101 3923.325, 4365.070 3932.775, 4363.995 3938 C 4362.919 3943.225, 4360.859 3952.900, 4359.416 3959.500 C 4357.974 3966.100, 4355.997 3975.325, 4355.024 3980 C 4354.051 3984.675, 4352.062 3993.900, 4350.604 4000.500 C 4344.560 4027.864, 4341 4045.325, 4341 4047.604 L 4341 4050.027 4374.727 4049.763 L 4408.454 4049.500 4409.743 4044 C 4410.453 4040.975, 4411.888 4034.225, 4412.933 4029 C 4415.890 4014.212, 4419.527 3996.458, 4424.510 3972.500 C 4427.026 3960.400, 4429.738 3947.125, 4430.536 3943 C 4431.333 3938.875, 4432.224 3934.484, 4432.514 3933.241 L 4433.042 3930.982 4486.258 3931.241 L 4539.474 3931.500 4542.690 3947 C 4544.458 3955.525, 4546.547 3965.875, 4547.331 3970 C 4551.370 3991.231, 4563.090 4048.337, 4563.568 4049.110 C 4563.872 4049.602, 4579.512 4050, 4598.559 4050 C 4628.101 4050, 4633 4049.792, 4633 4048.539 C 4633 4047.735, 4632.074 4043.123, 4630.943 4038.289 C 4629.812 4033.455, 4628.256 4026.350, 4627.486 4022.500 C 4626.716 4018.650, 4624.930 4010.325, 4623.518 4004 C 4622.105 3997.675, 4620.101 3988.450, 4619.063 3983.500 C 4616.687 3972.163, 4613.275 3956.266, 4607.474 3929.500 C 4604.970 3917.950, 4602.280 3905.350, 4601.495 3901.500 C 4600.710 3897.650, 4598.685 3888.200, 4596.995 3880.500 C 4592.936 3862.004, 4590.206 3849.371, 4588.028 3839 C 4585.324 3826.133, 4577.332 3788.977, 4574.476 3776 C 4573.084 3769.675, 4571.302 3761.350, 4570.516 3757.500 C 4569.729 3753.650, 4567.884 3745.100, 4566.416 3738.500 C 4564.947 3731.900, 4562.949 3722.675, 4561.976 3718 C 4561.003 3713.325, 4559.071 3704.325, 4557.683 3698 C 4556.296 3691.675, 4553.288 3677.725, 4551 3667 C 4542.027 3624.942, 4538.548 3608.791, 4537.106 3602.500 L 4536.418 3599.500 4486.842 3599.241 L 4437.265 3598.981 4436.142 3603.241 M 3886.715 3676.500 C 3885.792 3680.350, 3883.229 3692.500, 3881.019 3703.500 C 3878.809 3714.500, 3874.971 3733.400, 3872.491 3745.500 C 3870.011 3757.600, 3866.146 3776.500, 3863.901 3787.500 C 3861.656 3798.500, 3858.732 3812.675, 3857.403 3819 C 3856.073 3825.325, 3854.122 3835, 3853.066 3840.500 C 3852.011 3846, 3850.841 3851.287, 3850.466 3852.250 C 3849.826 3853.898, 3851.984 3854, 3887.393 3854 C 3911.159 3854, 3925 3853.641, 3925 3853.025 C 3925 3852.488, 3922.705 3840.676, 3919.899 3826.775 C 3914.171 3798.394, 3912.185 3788.407, 3909.110 3772.511 C 3907.940 3766.467, 3906.768 3760.842, 3906.505 3760.011 C 3906.242 3759.180, 3905.128 3753.775, 3904.030 3748 C 3902.932 3742.225, 3901.129 3733, 3900.023 3727.500 C 3898.917 3722, 3895.847 3706.700, 3893.202 3693.500 L 3888.393 3669.500 3886.715 3676.500 M 4483.743 3683.068 C 4482.279 3690.456, 4479.039 3706.400, 4476.542 3718.500 C 4474.045 3730.600, 4470.206 3749.275, 4468.011 3760 C 4465.815 3770.725, 4461.751 3790.525, 4458.979 3804 C 4456.207 3817.475, 4453.280 3832.100, 4452.475 3836.500 C 4451.670 3840.900, 4450.559 3846.072, 4450.006 3847.993 C 4449.453 3849.915, 4449 3852.052, 4449 3852.743 C 4449 3853.730, 4457.065 3854, 4486.519 3854 L 4524.038 3854 4523.497 3851.750 C 4522.999 3849.683, 4522.160 3845.481, 4517.054 3819.500 C 4516.082 3814.550, 4512.023 3794.525, 4508.035 3775 C 4504.046 3755.475, 4499.900 3735, 4498.820 3729.500 C 4497.741 3724, 4496.042 3715.450, 4495.045 3710.500 C 4494.048 3705.550, 4492.270 3696.550, 4491.095 3690.500 C 4489.920 3684.450, 4488.383 3677.281, 4487.681 3674.568 L 4486.404 3669.636 4483.743 3683.068 M 238 3740.882 L 238 3803 266.250 3802.988 C 296.711 3802.975, 301.197 3802.419, 309.348 3797.642 C 319.511 3791.686, 326.869 3779.065, 330.126 3762 C 331.950 3752.446, 331.631 3727.229, 329.564 3717.632 C 325.359 3698.099, 317.422 3687.659, 302.500 3682.030 C 296.906 3679.919, 294.520 3679.732, 267.250 3679.265 L 238 3678.764 238 3740.882 M 2796.750 3679.562 C 2796.338 3679.986, 2796 3707.958, 2796 3741.721 L 2796 3803.108 2826.250 3802.797 C 2855.097 3802.500, 2856.764 3802.379, 2862.202 3800.189 C 2874.246 3795.338, 2882.412 3784.296, 2887.116 3766.500 C 2890.184 3754.895, 2890.176 3727.136, 2887.102 3715.500 C 2881.982 3696.122, 2873.852 3686.469, 2858 3680.951 C 2854.007 3679.560, 2797.986 3678.290, 2796.750 3679.562 M 1362 3742.898 L 1362 3805 1389.835 3805 C 1415.367 3805, 1418.200 3804.827, 1424.085 3802.908 C 1434.505 3799.510, 1440.696 3794.076, 1446.157 3783.533 C 1458.009 3760.654, 1457.042 3719.300, 1444.190 3699.416 C 1439.005 3691.393, 1433.522 3686.918, 1425.320 3684.012 C 1418.856 3681.722, 1417.026 3681.575, 1390.250 3681.196 L 1362 3680.795 1362 3742.898 M 3288 3742.891 L 3288 3805 3315.750 3804.988 C 3344.850 3804.976, 3349.323 3804.466, 3357.500 3800.235 C 3373.485 3791.963, 3382.377 3767.272, 3380.634 3736 C 3379.852 3721.975, 3377.993 3713.774, 3373.458 3704.345 C 3368.273 3693.567, 3362.922 3688.787, 3349.500 3682.947 C 3347.343 3682.009, 3338.284 3681.521, 3317.250 3681.212 L 3288 3680.781 3288 3742.891 M 3546 3824 L 3546 3965 3566.250 3964.992 C 3604.446 3964.976, 3622.350 3960.639, 3638.206 3947.560 C 3657.823 3931.379, 3669.155 3903.291, 3673.128 3861 C 3674.755 3843.682, 3674.746 3803.261, 3673.112 3786.500 C 3671.752 3772.547, 3668.283 3754.035, 3664.882 3742.581 C 3658.034 3719.520, 3643.925 3701.186, 3626.077 3692.159 C 3621.554 3689.872, 3617.013 3688, 3615.986 3688 C 3614.958 3688, 3613.869 3687.598, 3613.565 3687.106 C 3612.280 3685.027, 3590.535 3683.153, 3566.750 3683.071 L 3546 3683 3546 3824" stroke="none" fill="#1044d7" fill-rule="evenodd"/></svg>