<?xml version="1.0" encoding="UTF-8"?>
<svg version="1.1" viewBox="0 0 912 916" width="1280" height="1280" xmlns="http://www.w3.org/2000/svg">
<path transform="translate(428)" d="m0 0h52l33 4 36 6 36 9 30 10 31 13 26 13 22 13 24 16 16 12 11 9 14 12 16 15 11 11 7 8 13 15 14 18 14 20 13 21 13 24 12 25 12 31 8 26 7 28 6 36 2 20v75l-4 36-6 31-8 30-10 29-12 28-14 28-10 17-13 20-11 15-9 12-11 13-9 11-25 25-8 7-10 9-14 11-19 14-17 11-15 9-22 12-21 10-27 11-34 11-34 8-30 5-31 3h-57l-38-4-32-6-28-7-36-12-26-11-28-14-27-16-16-11-18-13-17-14-24-22-13-13-7-8-12-14-11-14-11-15-13-20-11-19-12-23-13-29-10-28-8-28-7-33-5-38-2-31v-23l3-36 5-34 6-27 7-26 10-28 10-23 12-25 14-24 11-17 12-17 11-14 11-13 10-11 1-2h2l2-4 15-15 8-7 10-9 14-11 17-13 24-16 19-11 23-12 24-11 30-11 35-10 35-7zm-234 235-1 2 18 47 18 48 60 158 17 45 6 17 1 1h72l4-8 18-48 15-39 17-45 14-37 11-29 14-37 16-42 11-30v-3h-64l-7 1-45 120-14 38-13 37-9 28-2 6-3-8-12-38-17-47-15-40-30-81-5-14-2-2zm476 77-15 2-13 4-13 7-10 8-8 7-5 7-1-2-2-27h-67v18l1 46 1 270h69v-126h2l2 5 10 10 14 9 12 5 14 3 9 1h13l16-2 16-5 14-8 12-11 8-9 9-15 6-15 5-19 3-22v-33l-3-22-6-22-8-18-8-12-9-10-10-9-14-8-16-5-17-2zm-240 286-222 1v49h289l1-3v-46l-39-1z" fill="#0547CE"/>
<path transform="translate(650,364)" d="m0 0h9l10 2 9 5 8 8 8 16 4 13 2 12v28l-2 15-6 18-6 11-8 9-10 5-3 1h-16l-11-4-11-7-11-12-8-12-1-3v-70l10-14 12-12 10-6z" fill="#0547CE"/>
</svg>
